<svg width="149" height="52" viewBox="0 0 149 52" fill="none" xmlns="http://www.w3.org/2000/svg">
<rect x="0.447876" y="0.447876" width="147.205" height="50.4607" rx="7.91247" stroke="black" stroke-width="0.895751" fill="white"/>
<path d="M32.1317 21.3566C31.9721 21.4789 29.155 23.0467 29.155 26.5327C29.155 30.5649 32.7397 31.9914 32.847 32.0267C32.8305 32.1137 32.2775 33.9803 30.957 35.8823C29.7795 37.5561 28.5498 39.2271 26.6791 39.2271C24.8083 39.2271 24.3269 38.1538 22.1673 38.1538C20.0627 38.1538 19.3144 39.2624 17.6032 39.2624C15.8921 39.2624 14.6981 37.7136 13.3253 35.8117C11.7352 33.5782 10.4504 30.1084 10.4504 26.8153C10.4504 21.5332 13.9278 18.7319 17.3501 18.7319C19.1686 18.7319 20.6845 19.9111 21.8262 19.9111C22.9128 19.9111 24.6075 18.6613 26.6763 18.6613C27.4604 18.6613 30.2775 18.7319 32.1317 21.3566ZM25.6942 16.4251C26.5498 15.4225 27.155 14.0313 27.155 12.6401C27.155 12.4472 27.1385 12.2516 27.1027 12.094C25.7107 12.1456 24.0545 13.0097 23.0559 14.1536C22.2718 15.0339 21.54 16.4251 21.54 17.8353C21.54 18.0472 21.5758 18.2591 21.5923 18.327C21.6803 18.3434 21.8234 18.3624 21.9665 18.3624C23.2154 18.3624 24.7863 17.5364 25.6942 16.4251Z" fill="black"/>
<path d="M41.4162 17.4646C41.344 17.4646 41.2826 17.4393 41.2321 17.3888C41.1815 17.3382 41.1563 17.2769 41.1563 17.2047V10.1544C41.1563 10.0749 41.1815 10.01 41.2321 9.95942C41.2826 9.90888 41.344 9.88361 41.4162 9.88361H44.0587C44.7879 9.88361 45.3872 9.99552 45.8565 10.2193C46.333 10.4432 46.6904 10.7753 46.9286 11.2157C47.1741 11.6561 47.3005 12.194 47.3077 12.8294C47.3221 13.147 47.3294 13.4286 47.3294 13.6741C47.3294 13.9196 47.3221 14.1976 47.3077 14.508C47.2933 15.1795 47.1705 15.7354 46.9395 16.1758C46.7084 16.609 46.3583 16.9339 45.889 17.1505C45.4269 17.3599 44.8348 17.4646 44.1128 17.4646H41.4162ZM42.6616 16.2192H44.0587C44.463 16.2192 44.7915 16.1614 45.0442 16.0459C45.2969 15.9304 45.481 15.7462 45.5966 15.4935C45.7193 15.2336 45.7843 14.8943 45.7915 14.4755C45.7987 14.2589 45.8023 14.0712 45.8023 13.9124C45.8095 13.7463 45.8095 13.5839 45.8023 13.425C45.8023 13.259 45.7987 13.0712 45.7915 12.8619C45.7771 12.2698 45.629 11.833 45.3475 11.5514C45.0659 11.2698 44.6182 11.1291 44.0045 11.1291H42.6616V16.2192ZM51.132 17.5729C50.5544 17.5729 50.0671 17.4718 49.67 17.2697C49.2801 17.0675 48.9805 16.7823 48.7711 16.4141C48.5689 16.0459 48.4534 15.6163 48.4245 15.1253C48.4173 14.9954 48.4137 14.8365 48.4137 14.6488C48.4137 14.4611 48.4173 14.3022 48.4245 14.1723C48.4534 13.6741 48.5725 13.2445 48.7819 12.8835C48.9985 12.5153 49.3018 12.2301 49.6916 12.0279C50.0887 11.8258 50.5689 11.7247 51.132 11.7247C51.6952 11.7247 52.1717 11.8258 52.5616 12.0279C52.9587 12.2301 53.2619 12.5153 53.4713 12.8835C53.6879 13.2445 53.8106 13.6741 53.8395 14.1723C53.8467 14.3022 53.8504 14.4611 53.8504 14.6488C53.8504 14.8365 53.8467 14.9954 53.8395 15.1253C53.8106 15.6163 53.6915 16.0459 53.4821 16.4141C53.28 16.7823 52.9803 17.0675 52.5832 17.2697C52.1934 17.4718 51.7096 17.5729 51.132 17.5729ZM51.132 16.5007C51.5147 16.5007 51.8107 16.3816 52.0201 16.1433C52.2295 15.8979 52.345 15.5405 52.3666 15.0712C52.3739 14.9629 52.3775 14.8221 52.3775 14.6488C52.3775 14.4755 52.3739 14.3347 52.3666 14.2264C52.345 13.7644 52.2295 13.4106 52.0201 13.1651C51.8107 12.9196 51.5147 12.7969 51.132 12.7969C50.7494 12.7969 50.4534 12.9196 50.244 13.1651C50.0346 13.4106 49.9191 13.7644 49.8974 14.2264C49.8902 14.3347 49.8866 14.4755 49.8866 14.6488C49.8866 14.8221 49.8902 14.9629 49.8974 15.0712C49.9191 15.5405 50.0346 15.8979 50.244 16.1433C50.4534 16.3816 50.7494 16.5007 51.132 16.5007ZM56.4295 17.4646C56.3284 17.4646 56.2526 17.4393 56.2021 17.3888C56.1515 17.3382 56.1082 17.2733 56.0721 17.1939L54.5234 12.1687C54.5162 12.1326 54.5126 12.1001 54.5126 12.0713C54.5126 12.0063 54.5343 11.9521 54.5776 11.9088C54.6281 11.8583 54.6823 11.833 54.74 11.833H55.5414C55.6281 11.833 55.6967 11.8583 55.7472 11.9088C55.7978 11.9521 55.8266 11.9955 55.8339 12.0388L56.8952 15.6235L58.0215 12.0713C58.0359 12.0207 58.0684 11.9702 58.119 11.9196C58.1695 11.8619 58.2453 11.833 58.3464 11.833H58.8879C58.989 11.833 59.0648 11.8619 59.1153 11.9196C59.1659 11.9702 59.1984 12.0207 59.2128 12.0713L60.3391 15.6235L61.4005 12.0388C61.4077 11.9955 61.433 11.9521 61.4763 11.9088C61.5268 11.8583 61.5954 11.833 61.682 11.833H62.4835C62.5484 11.833 62.6026 11.8583 62.6459 11.9088C62.6965 11.9521 62.7217 12.0063 62.7217 12.0713C62.7217 12.1001 62.7145 12.1326 62.7001 12.1687L61.1514 17.1939C61.1297 17.2733 61.09 17.3382 61.0322 17.3888C60.9817 17.4393 60.9059 17.4646 60.8048 17.4646H60.1009C59.9998 17.4646 59.9204 17.4393 59.8626 17.3888C59.8048 17.3382 59.7651 17.2733 59.7435 17.1939L58.6172 13.7716L57.4908 17.1939C57.462 17.2733 57.4186 17.3382 57.3609 17.3888C57.3103 17.4393 57.2309 17.4646 57.1226 17.4646H56.4295ZM64.0355 17.4646C63.9633 17.4646 63.902 17.4393 63.8514 17.3888C63.8009 17.3382 63.7756 17.2769 63.7756 17.2047V12.0929C63.7756 12.0207 63.8009 11.9594 63.8514 11.9088C63.902 11.8583 63.9633 11.833 64.0355 11.833H64.9236C64.9958 11.833 65.0572 11.8583 65.1077 11.9088C65.1582 11.9594 65.1835 12.0207 65.1835 12.0929V12.537C65.3712 12.3059 65.6095 12.1146 65.8983 11.963C66.1943 11.8041 66.5589 11.7247 66.9921 11.7247C67.4325 11.7247 67.8152 11.8258 68.1401 12.0279C68.465 12.2229 68.7141 12.5009 68.8874 12.8619C69.0679 13.2229 69.1581 13.6561 69.1581 14.1615V17.2047C69.1581 17.2769 69.1328 17.3382 69.0823 17.3888C69.0318 17.4393 68.9704 17.4646 68.8982 17.4646H67.9452C67.873 17.4646 67.8116 17.4393 67.761 17.3888C67.7105 17.3382 67.6852 17.2769 67.6852 17.2047V14.2264C67.6852 13.8077 67.5805 13.4792 67.3712 13.2409C67.169 13.0026 66.873 12.8835 66.4831 12.8835C66.1077 12.8835 65.808 13.0026 65.5842 13.2409C65.3604 13.4792 65.2485 13.8077 65.2485 14.2264V17.2047C65.2485 17.2769 65.2232 17.3382 65.1727 17.3888C65.1221 17.4393 65.0608 17.4646 64.9886 17.4646H64.0355ZM70.8045 17.4646C70.7323 17.4646 70.671 17.4393 70.6204 17.3888C70.5699 17.3382 70.5446 17.2769 70.5446 17.2047V10.0352C70.5446 9.96303 70.5699 9.90166 70.6204 9.85112C70.671 9.80058 70.7323 9.77531 70.8045 9.77531H71.7034C71.7756 9.77531 71.837 9.80058 71.8875 9.85112C71.9381 9.90166 71.9633 9.96303 71.9633 10.0352V17.2047C71.9633 17.2769 71.9381 17.3382 71.8875 17.3888C71.837 17.4393 71.7756 17.4646 71.7034 17.4646H70.8045ZM75.8908 17.5729C75.3132 17.5729 74.8259 17.4718 74.4288 17.2697C74.0389 17.0675 73.7393 16.7823 73.5299 16.4141C73.3277 16.0459 73.2122 15.6163 73.1833 15.1253C73.1761 14.9954 73.1725 14.8365 73.1725 14.6488C73.1725 14.4611 73.1761 14.3022 73.1833 14.1723C73.2122 13.6741 73.3313 13.2445 73.5407 12.8835C73.7573 12.5153 74.0605 12.2301 74.4504 12.0279C74.8475 11.8258 75.3277 11.7247 75.8908 11.7247C76.454 11.7247 76.9305 11.8258 77.3204 12.0279C77.7175 12.2301 78.0207 12.5153 78.2301 12.8835C78.4467 13.2445 78.5694 13.6741 78.5983 14.1723C78.6055 14.3022 78.6091 14.4611 78.6091 14.6488C78.6091 14.8365 78.6055 14.9954 78.5983 15.1253C78.5694 15.6163 78.4503 16.0459 78.2409 16.4141C78.0388 16.7823 77.7391 17.0675 77.342 17.2697C76.9522 17.4718 76.4684 17.5729 75.8908 17.5729ZM75.8908 16.5007C76.2735 16.5007 76.5695 16.3816 76.7789 16.1433C76.9883 15.8979 77.1038 15.5405 77.1254 15.0712C77.1327 14.9629 77.1363 14.8221 77.1363 14.6488C77.1363 14.4755 77.1327 14.3347 77.1254 14.2264C77.1038 13.7644 76.9883 13.4106 76.7789 13.1651C76.5695 12.9196 76.2735 12.7969 75.8908 12.7969C75.5082 12.7969 75.2121 12.9196 75.0028 13.1651C74.7934 13.4106 74.6779 13.7644 74.6562 14.2264C74.649 14.3347 74.6454 14.4755 74.6454 14.6488C74.6454 14.8221 74.649 14.9629 74.6562 15.0712C74.6779 15.5405 74.7934 15.8979 75.0028 16.1433C75.2121 16.3816 75.5082 16.5007 75.8908 16.5007ZM81.4444 17.5729C81.069 17.5729 80.7296 17.5007 80.4264 17.3563C80.1231 17.2047 79.8813 17.0061 79.7008 16.7607C79.5275 16.508 79.4408 16.2264 79.4408 15.9159C79.4408 15.4105 79.643 15.0098 80.0473 14.7138C80.4589 14.4105 81.0004 14.2084 81.6718 14.1073L83.1555 13.8907V13.6633C83.1555 13.36 83.0797 13.1254 82.9281 12.9593C82.7765 12.7933 82.5166 12.7102 82.1483 12.7102C81.8884 12.7102 81.6754 12.7644 81.5094 12.8727C81.3505 12.9738 81.2314 13.1109 81.152 13.2842C81.0942 13.3781 81.0112 13.425 80.9029 13.425H80.0473C79.9679 13.425 79.9065 13.4034 79.8632 13.36C79.8271 13.3167 79.8091 13.259 79.8091 13.1868C79.8163 13.0712 79.8632 12.9304 79.9499 12.7644C80.0365 12.5983 80.1737 12.4395 80.3614 12.2879C80.5491 12.129 80.791 11.9955 81.087 11.8872C81.383 11.7789 81.7404 11.7247 82.1592 11.7247C82.614 11.7247 82.9967 11.7825 83.3072 11.898C83.6248 12.0063 83.8775 12.1543 84.0653 12.342C84.253 12.5297 84.3902 12.7499 84.4768 13.0026C84.5634 13.2553 84.6067 13.5225 84.6067 13.8041V17.2047C84.6067 17.2769 84.5815 17.3382 84.5309 17.3888C84.4804 17.4393 84.419 17.4646 84.3468 17.4646H83.4696C83.3902 17.4646 83.3252 17.4393 83.2747 17.3888C83.2313 17.3382 83.2097 17.2769 83.2097 17.2047V16.7823C83.1158 16.9195 82.9895 17.0495 82.8306 17.1722C82.6718 17.2877 82.4769 17.3852 82.2458 17.4646C82.022 17.5368 81.7549 17.5729 81.4444 17.5729ZM81.8126 16.5441C82.0653 16.5441 82.2927 16.4899 82.4949 16.3816C82.7043 16.2733 82.8667 16.1072 82.9823 15.8834C83.105 15.6524 83.1664 15.3636 83.1664 15.017V14.7896L82.0834 14.9629C81.6574 15.0279 81.3397 15.1325 81.1303 15.2769C80.9209 15.4213 80.8163 15.5982 80.8163 15.8076C80.8163 15.9665 80.8632 16.1036 80.957 16.2192C81.0581 16.3275 81.1845 16.4105 81.3361 16.4682C81.4877 16.5188 81.6466 16.5441 81.8126 16.5441ZM88.0863 17.5729C87.7109 17.5729 87.3787 17.5115 87.0899 17.3888C86.8084 17.2588 86.5737 17.0783 86.386 16.8473C86.1983 16.6163 86.0539 16.3455 85.9528 16.035C85.8517 15.7174 85.794 15.3708 85.7795 14.9954C85.7723 14.8654 85.7687 14.7499 85.7687 14.6488C85.7687 14.5405 85.7723 14.4214 85.7795 14.2914C85.794 13.9304 85.8481 13.5947 85.942 13.2842C86.043 12.9738 86.1874 12.703 86.3752 12.472C86.5701 12.2337 86.8084 12.0496 87.0899 11.9196C87.3787 11.7897 87.7109 11.7247 88.0863 11.7247C88.4762 11.7247 88.8047 11.7933 89.0718 11.9305C89.3462 12.0604 89.5736 12.2301 89.7541 12.4395V10.0352C89.7541 9.96303 89.7758 9.90166 89.8191 9.85112C89.8696 9.80058 89.9346 9.77531 90.014 9.77531H90.9346C91.0068 9.77531 91.0682 9.80058 91.1187 9.85112C91.1692 9.90166 91.1945 9.96303 91.1945 10.0352V17.2047C91.1945 17.2769 91.1692 17.3382 91.1187 17.3888C91.0682 17.4393 91.0068 17.4646 90.9346 17.4646H90.079C89.9996 17.4646 89.9346 17.4393 89.8841 17.3888C89.8408 17.3382 89.8191 17.2769 89.8191 17.2047V16.804C89.6386 17.0278 89.4076 17.2119 89.126 17.3563C88.8516 17.5007 88.5051 17.5729 88.0863 17.5729ZM88.487 16.4141C88.7903 16.4141 89.0321 16.3455 89.2126 16.2083C89.3931 16.0711 89.5267 15.8979 89.6133 15.6885C89.7 15.4719 89.7469 15.2517 89.7541 15.0279C89.7613 14.8979 89.765 14.7607 89.765 14.6163C89.765 14.4647 89.7613 14.3239 89.7541 14.1939C89.7469 13.9773 89.6964 13.7716 89.6025 13.5766C89.5086 13.3745 89.3715 13.2084 89.191 13.0785C89.0105 12.9485 88.7758 12.8835 88.487 12.8835C88.1838 12.8835 87.9419 12.9521 87.7614 13.0893C87.5881 13.2192 87.4618 13.3925 87.3824 13.6091C87.3029 13.8257 87.256 14.064 87.2416 14.3239C87.2343 14.5405 87.2343 14.7571 87.2416 14.9737C87.256 15.2336 87.3029 15.4719 87.3824 15.6885C87.4618 15.9051 87.5881 16.082 87.7614 16.2192C87.9419 16.3491 88.1838 16.4141 88.487 16.4141ZM97.6037 17.5729C97.0261 17.5729 96.5387 17.4718 96.1416 17.2697C95.7517 17.0675 95.4521 16.7823 95.2427 16.4141C95.0406 16.0459 94.925 15.6163 94.8962 15.1253C94.8889 14.9954 94.8853 14.8365 94.8853 14.6488C94.8853 14.4611 94.8889 14.3022 94.8962 14.1723C94.925 13.6741 95.0442 13.2445 95.2536 12.8835C95.4702 12.5153 95.7734 12.2301 96.1633 12.0279C96.5604 11.8258 97.0405 11.7247 97.6037 11.7247C98.1668 11.7247 98.6433 11.8258 99.0332 12.0279C99.4303 12.2301 99.7336 12.5153 99.9429 12.8835C100.16 13.2445 100.282 13.6741 100.311 14.1723C100.318 14.3022 100.322 14.4611 100.322 14.6488C100.322 14.8365 100.318 14.9954 100.311 15.1253C100.282 15.6163 100.163 16.0459 99.9538 16.4141C99.7516 16.7823 99.452 17.0675 99.0549 17.2697C98.665 17.4718 98.1813 17.5729 97.6037 17.5729ZM97.6037 16.5007C97.9863 16.5007 98.2823 16.3816 98.4917 16.1433C98.7011 15.8979 98.8166 15.5405 98.8383 15.0712C98.8455 14.9629 98.8491 14.8221 98.8491 14.6488C98.8491 14.4755 98.8455 14.3347 98.8383 14.2264C98.8166 13.7644 98.7011 13.4106 98.4917 13.1651C98.2823 12.9196 97.9863 12.7969 97.6037 12.7969C97.221 12.7969 96.925 12.9196 96.7156 13.1651C96.5062 13.4106 96.3907 13.7644 96.369 14.2264C96.3618 14.3347 96.3582 14.4755 96.3582 14.6488C96.3582 14.8221 96.3618 14.9629 96.369 15.0712C96.3907 15.5405 96.5062 15.8979 96.7156 16.1433C96.925 16.3816 97.221 16.5007 97.6037 16.5007ZM101.782 17.4646C101.71 17.4646 101.648 17.4393 101.598 17.3888C101.547 17.3382 101.522 17.2769 101.522 17.2047V12.0929C101.522 12.0207 101.547 11.9594 101.598 11.9088C101.648 11.8583 101.71 11.833 101.782 11.833H102.67C102.742 11.833 102.803 11.8583 102.854 11.9088C102.905 11.9594 102.93 12.0207 102.93 12.0929V12.537C103.118 12.3059 103.356 12.1146 103.645 11.963C103.941 11.8041 104.305 11.7247 104.738 11.7247C105.179 11.7247 105.561 11.8258 105.886 12.0279C106.211 12.2229 106.46 12.5009 106.634 12.8619C106.814 13.2229 106.904 13.6561 106.904 14.1615V17.2047C106.904 17.2769 106.879 17.3382 106.829 17.3888C106.778 17.4393 106.717 17.4646 106.644 17.4646H105.691C105.619 17.4646 105.558 17.4393 105.507 17.3888C105.457 17.3382 105.432 17.2769 105.432 17.2047V14.2264C105.432 13.8077 105.327 13.4792 105.117 13.2409C104.915 13.0026 104.619 12.8835 104.229 12.8835C103.854 12.8835 103.554 13.0026 103.331 13.2409C103.107 13.4792 102.995 13.8077 102.995 14.2264V17.2047C102.995 17.2769 102.97 17.3382 102.919 17.3888C102.868 17.4393 102.807 17.4646 102.735 17.4646H101.782ZM113.078 17.4646C112.645 17.4646 112.28 17.3888 111.984 17.2372C111.688 17.0856 111.468 16.8617 111.323 16.5657C111.179 16.2625 111.107 15.887 111.107 15.4394V12.981H110.251C110.179 12.981 110.118 12.9557 110.067 12.9052C110.017 12.8546 109.991 12.7933 109.991 12.7211V12.0929C109.991 12.0207 110.017 11.9594 110.067 11.9088C110.118 11.8583 110.179 11.833 110.251 11.833H111.107V10.0352C111.107 9.96303 111.128 9.90166 111.172 9.85112C111.222 9.80058 111.287 9.77531 111.367 9.77531H112.244C112.316 9.77531 112.378 9.80058 112.428 9.85112C112.479 9.90166 112.504 9.96303 112.504 10.0352V11.833H113.858C113.93 11.833 113.991 11.8583 114.042 11.9088C114.092 11.9594 114.118 12.0207 114.118 12.0929V12.7211C114.118 12.7933 114.092 12.8546 114.042 12.9052C113.991 12.9557 113.93 12.981 113.858 12.981H112.504V15.3311C112.504 15.6271 112.554 15.8582 112.655 16.0242C112.764 16.1903 112.948 16.2733 113.208 16.2733H113.955C114.027 16.2733 114.089 16.2986 114.139 16.3491C114.19 16.3997 114.215 16.461 114.215 16.5332V17.2047C114.215 17.2769 114.19 17.3382 114.139 17.3888C114.089 17.4393 114.027 17.4646 113.955 17.4646H113.078ZM115.446 17.4646C115.374 17.4646 115.313 17.4393 115.262 17.3888C115.212 17.3382 115.187 17.2769 115.187 17.2047V10.0352C115.187 9.96303 115.212 9.90166 115.262 9.85112C115.313 9.80058 115.374 9.77531 115.446 9.77531H116.41C116.49 9.77531 116.551 9.80058 116.594 9.85112C116.645 9.90166 116.67 9.96303 116.67 10.0352V12.5045C116.865 12.2734 117.103 12.0857 117.385 11.9413C117.667 11.7969 118.013 11.7247 118.425 11.7247C118.865 11.7247 119.248 11.8258 119.573 12.0279C119.905 12.2229 120.161 12.5009 120.342 12.8619C120.522 13.2229 120.612 13.6561 120.612 14.1615V17.2047C120.612 17.2769 120.587 17.3382 120.537 17.3888C120.486 17.4393 120.425 17.4646 120.352 17.4646H119.378C119.306 17.4646 119.244 17.4393 119.194 17.3888C119.143 17.3382 119.118 17.2769 119.118 17.2047V14.2264C119.118 13.8077 119.013 13.4792 118.804 13.2409C118.602 13.0026 118.306 12.8835 117.916 12.8835C117.54 12.8835 117.237 13.0026 117.006 13.2409C116.782 13.4792 116.67 13.8077 116.67 14.2264V17.2047C116.67 17.2769 116.645 17.3382 116.594 17.3888C116.551 17.4393 116.49 17.4646 116.41 17.4646H115.446ZM124.413 17.5729C123.611 17.5729 122.976 17.3419 122.507 16.8798C122.037 16.4177 121.785 15.7607 121.749 14.9087C121.741 14.8365 121.738 14.7463 121.738 14.638C121.738 14.5225 121.741 14.4322 121.749 14.3672C121.777 13.8257 121.9 13.3564 122.117 12.9593C122.341 12.5622 122.647 12.259 123.037 12.0496C123.427 11.833 123.886 11.7247 124.413 11.7247C124.998 11.7247 125.488 11.8474 125.886 12.0929C126.283 12.3312 126.582 12.6669 126.784 13.1001C126.987 13.5261 127.088 14.0207 127.088 14.5838V14.8113C127.088 14.8835 127.062 14.9448 127.012 14.9954C126.961 15.0459 126.896 15.0712 126.817 15.0712H123.221C123.221 15.0712 123.221 15.082 123.221 15.1037C123.221 15.1253 123.221 15.1434 123.221 15.1578C123.229 15.4105 123.276 15.6452 123.362 15.8618C123.456 16.0711 123.59 16.2408 123.763 16.3708C123.943 16.5007 124.156 16.5657 124.402 16.5657C124.604 16.5657 124.774 16.5368 124.911 16.4791C125.048 16.4141 125.16 16.3419 125.247 16.2625C125.333 16.1831 125.395 16.1181 125.431 16.0675C125.496 15.9809 125.546 15.9304 125.582 15.9159C125.626 15.8943 125.687 15.8834 125.766 15.8834H126.698C126.77 15.8834 126.828 15.9051 126.871 15.9484C126.922 15.9917 126.943 16.0459 126.936 16.1109C126.929 16.2264 126.867 16.3672 126.752 16.5332C126.644 16.6993 126.485 16.8617 126.275 17.0206C126.066 17.1794 125.803 17.313 125.485 17.4213C125.174 17.5224 124.817 17.5729 124.413 17.5729ZM123.221 14.1615H125.615V14.129C125.615 13.8474 125.568 13.6019 125.474 13.3925C125.38 13.1831 125.243 13.0171 125.062 12.8943C124.882 12.7716 124.665 12.7102 124.413 12.7102C124.16 12.7102 123.943 12.7716 123.763 12.8943C123.582 13.0171 123.445 13.1831 123.351 13.3925C123.265 13.6019 123.221 13.8474 123.221 14.129V14.1615Z" fill="black"/>
<path d="M41.1149 37.7207C40.9925 37.7207 40.8777 37.6748 40.7706 37.583C40.6788 37.4912 40.6329 37.3764 40.6329 37.2387C40.6329 37.1775 40.6482 37.1086 40.6788 37.0321L46.2105 22.2272C46.2565 22.0741 46.3406 21.9441 46.463 21.837C46.6008 21.7145 46.7844 21.6533 47.0139 21.6533H49.5158C49.7454 21.6533 49.9213 21.7145 50.0438 21.837C50.1662 21.9441 50.258 22.0741 50.3192 22.2272L55.851 37.0321C55.8663 37.1086 55.8739 37.1775 55.8739 37.2387C55.8739 37.3764 55.828 37.4912 55.7362 37.583C55.6444 37.6748 55.5373 37.7207 55.4149 37.7207H53.4179C53.2037 37.7207 53.043 37.6748 52.9359 37.583C52.8441 37.4759 52.7829 37.3764 52.7523 37.2846L51.6734 34.4843H44.8563L43.7775 37.2846C43.7469 37.3764 43.678 37.4759 43.5709 37.583C43.4791 37.6748 43.3261 37.7207 43.1118 37.7207H41.1149ZM45.6597 31.8446H50.8701L48.2534 24.752L45.6597 31.8446ZM56.7085 42.0818C56.5555 42.0818 56.4254 42.0283 56.3183 41.9212C56.2112 41.8141 56.1576 41.684 56.1576 41.531V26.3358C56.1576 26.1828 56.2112 26.0527 56.3183 25.9456C56.4254 25.8385 56.5555 25.7849 56.7085 25.7849H58.5218C58.6901 25.7849 58.8202 25.8385 58.912 25.9456C59.0191 26.0527 59.0727 26.1828 59.0727 26.3358V27.254C59.4399 26.7643 59.922 26.3588 60.5188 26.0374C61.1155 25.7161 61.8577 25.5554 62.7452 25.5554C63.5562 25.5554 64.2602 25.6855 64.8569 25.9456C65.4537 26.2058 65.9511 26.5807 66.3489 27.0703C66.7468 27.5447 67.0528 28.1109 67.267 28.7689C67.4813 29.4269 67.6037 30.1537 67.6343 30.9495C67.6496 31.2096 67.6573 31.4774 67.6573 31.7528C67.6573 32.0283 67.6496 32.3037 67.6343 32.5791C67.619 33.3443 67.5042 34.0558 67.29 34.7138C67.0758 35.3565 66.7621 35.9227 66.3489 36.4124C65.9511 36.8867 65.4537 37.2616 64.8569 37.5371C64.2602 37.8125 63.5562 37.9502 62.7452 37.9502C61.9189 37.9502 61.215 37.8049 60.6335 37.5141C60.052 37.2081 59.5777 36.8102 59.2104 36.3205V41.531C59.2104 41.684 59.1569 41.8141 59.0497 41.9212C58.9579 42.0283 58.8279 42.0818 58.6595 42.0818H56.7085ZM61.896 35.4942C62.554 35.4942 63.0666 35.3565 63.4338 35.0811C63.8011 34.7903 64.0612 34.4154 64.2142 33.9563C64.3826 33.4973 64.482 32.9923 64.5126 32.4414C64.5432 31.9824 64.5432 31.5233 64.5126 31.0642C64.482 30.5133 64.3826 30.0084 64.2142 29.5493C64.0612 29.0902 63.8011 28.723 63.4338 28.4475C63.0666 28.1568 62.554 28.0114 61.896 28.0114C61.2686 28.0114 60.7559 28.1568 60.3581 28.4475C59.9755 28.7383 59.6924 29.1132 59.5088 29.5723C59.3405 30.016 59.241 30.4751 59.2104 30.9495C59.1951 31.2249 59.1875 31.5156 59.1875 31.8217C59.1875 32.1277 59.1951 32.4261 59.2104 32.7169C59.2257 33.1759 59.3328 33.6197 59.5318 34.0482C59.7307 34.4613 60.0214 34.8056 60.404 35.0811C60.7865 35.3565 61.2839 35.4942 61.896 35.4942ZM69.201 42.0818C69.048 42.0818 68.918 42.0283 68.8108 41.9212C68.7037 41.8141 68.6502 41.684 68.6502 41.531V26.3358C68.6502 26.1828 68.7037 26.0527 68.8108 25.9456C68.918 25.8385 69.048 25.7849 69.201 25.7849H71.0144C71.1827 25.7849 71.3128 25.8385 71.4046 25.9456C71.5117 26.0527 71.5652 26.1828 71.5652 26.3358V27.254C71.9325 26.7643 72.4145 26.3588 73.0113 26.0374C73.6081 25.7161 74.3503 25.5554 75.2378 25.5554C76.0488 25.5554 76.7527 25.6855 77.3495 25.9456C77.9463 26.2058 78.4436 26.5807 78.8415 27.0703C79.2393 27.5447 79.5454 28.1109 79.7596 28.7689C79.9738 29.4269 80.0963 30.1537 80.1269 30.9495C80.1422 31.2096 80.1498 31.4774 80.1498 31.7528C80.1498 32.0283 80.1422 32.3037 80.1269 32.5791C80.1116 33.3443 79.9968 34.0558 79.7826 34.7138C79.5683 35.3565 79.2546 35.9227 78.8415 36.4124C78.4436 36.8867 77.9463 37.2616 77.3495 37.5371C76.7527 37.8125 76.0488 37.9502 75.2378 37.9502C74.4115 37.9502 73.7076 37.8049 73.1261 37.5141C72.5446 37.2081 72.0702 36.8102 71.703 36.3205V41.531C71.703 41.684 71.6494 41.8141 71.5423 41.9212C71.4505 42.0283 71.3204 42.0818 71.1521 42.0818H69.201ZM74.3885 35.4942C75.0465 35.4942 75.5591 35.3565 75.9264 35.0811C76.2936 34.7903 76.5538 34.4154 76.7068 33.9563C76.8751 33.4973 76.9746 32.9923 77.0052 32.4414C77.0358 31.9824 77.0358 31.5233 77.0052 31.0642C76.9746 30.5133 76.8751 30.0084 76.7068 29.5493C76.5538 29.0902 76.2936 28.723 75.9264 28.4475C75.5591 28.1568 75.0465 28.0114 74.3885 28.0114C73.7611 28.0114 73.2485 28.1568 72.8506 28.4475C72.4681 28.7383 72.185 29.1132 72.0014 29.5723C71.833 30.016 71.7336 30.4751 71.703 30.9495C71.6877 31.2249 71.68 31.5156 71.68 31.8217C71.68 32.1277 71.6877 32.4261 71.703 32.7169C71.7183 33.1759 71.8254 33.6197 72.0243 34.0482C72.2232 34.4613 72.514 34.8056 72.8965 35.0811C73.2791 35.3565 73.7764 35.4942 74.3885 35.4942ZM90.6114 37.9502C89.1882 37.9502 87.9947 37.7437 87.0306 37.3305C86.0819 36.902 85.355 36.3512 84.8501 35.6779C84.3604 34.9893 84.1002 34.27 84.0696 33.5202C84.0696 33.3825 84.1155 33.2677 84.2074 33.1759C84.2992 33.0841 84.4139 33.0382 84.5517 33.0382H86.5945C86.7934 33.0382 86.9388 33.0841 87.0306 33.1759C87.1377 33.2524 87.2296 33.3519 87.3061 33.4743C87.3979 33.7651 87.5739 34.0558 87.834 34.3466C88.0941 34.622 88.4461 34.8515 88.8898 35.0352C89.3489 35.2188 89.9228 35.3106 90.6114 35.3106C91.7131 35.3106 92.5318 35.127 93.0674 34.7597C93.6182 34.3925 93.8937 33.8951 93.8937 33.2677C93.8937 32.824 93.7483 32.472 93.4576 32.2119C93.1668 31.9364 92.7154 31.6916 92.1033 31.4774C91.5065 31.2478 90.7108 31.0107 89.7162 30.7658C88.5685 30.4904 87.6045 30.1614 86.824 29.7788C86.0589 29.381 85.4774 28.8836 85.0796 28.2869C84.697 27.6901 84.5058 26.9326 84.5058 26.0145C84.5058 25.1269 84.7429 24.3389 85.2173 23.6503C85.707 22.9617 86.3956 22.4184 87.2831 22.0206C88.1859 21.6227 89.2571 21.4238 90.4966 21.4238C91.4912 21.4238 92.3711 21.5615 93.1362 21.837C93.9013 22.0971 94.5364 22.4491 95.0414 22.8928C95.5463 23.3213 95.9289 23.788 96.189 24.293C96.4645 24.7826 96.6098 25.2647 96.6251 25.739C96.6251 25.8615 96.5792 25.9762 96.4874 26.0833C96.4109 26.1751 96.2961 26.2211 96.1431 26.2211H94.0085C93.886 26.2211 93.7636 26.1905 93.6412 26.1292C93.5188 26.068 93.4193 25.9533 93.3428 25.7849C93.251 25.3106 92.9526 24.9051 92.4476 24.5684C91.9426 24.2318 91.2923 24.0634 90.4966 24.0634C89.6703 24.0634 89.0046 24.2165 88.4996 24.5225C87.9947 24.8286 87.7422 25.3029 87.7422 25.9456C87.7422 26.3741 87.8646 26.7337 88.1094 27.0244C88.3696 27.2999 88.7751 27.5447 89.326 27.7589C89.8921 27.9732 90.6343 28.2027 91.5524 28.4475C92.8531 28.7383 93.9166 29.0749 94.743 29.4575C95.5693 29.84 96.1737 30.3297 96.5563 30.9265C96.9388 31.508 97.1301 32.2501 97.1301 33.153C97.1301 34.1629 96.8547 35.0275 96.3038 35.7467C95.7682 36.4506 95.0108 36.9938 94.0314 37.3764C93.0521 37.759 91.912 37.9502 90.6114 37.9502ZM103.272 37.7207C102.354 37.7207 101.582 37.56 100.954 37.2387C100.327 36.9173 99.8601 36.443 99.554 35.8156C99.248 35.1729 99.095 34.3772 99.095 33.4284V28.218H97.2816C97.1286 28.218 96.9986 28.1644 96.8914 28.0573C96.7843 27.9502 96.7308 27.8201 96.7308 27.6671V26.3358C96.7308 26.1828 96.7843 26.0527 96.8914 25.9456C96.9986 25.8385 97.1286 25.7849 97.2816 25.7849H99.095V21.9747C99.095 21.8217 99.1409 21.6916 99.2327 21.5845C99.3398 21.4774 99.4775 21.4238 99.6458 21.4238H101.505C101.658 21.4238 101.788 21.4774 101.895 21.5845C102.002 21.6916 102.056 21.8217 102.056 21.9747V25.7849H104.925C105.078 25.7849 105.208 25.8385 105.315 25.9456C105.422 26.0527 105.476 26.1828 105.476 26.3358V27.6671C105.476 27.8201 105.422 27.9502 105.315 28.0573C105.208 28.1644 105.078 28.218 104.925 28.218H102.056V33.1989C102.056 33.8263 102.163 34.316 102.377 34.6679C102.607 35.0199 102.997 35.1958 103.548 35.1958H105.132C105.285 35.1958 105.415 35.2494 105.522 35.3565C105.629 35.4636 105.683 35.5937 105.683 35.7467V37.1698C105.683 37.3228 105.629 37.4529 105.522 37.56C105.415 37.6671 105.285 37.7207 105.132 37.7207H103.272ZM111.391 37.9502C110.167 37.9502 109.134 37.736 108.293 37.3075C107.466 36.8791 106.831 36.2746 106.388 35.4942C105.959 34.7138 105.714 33.8033 105.653 32.7628C105.638 32.4873 105.63 32.1507 105.63 31.7528C105.63 31.355 105.638 31.0183 105.653 30.7429C105.714 29.687 105.967 28.7765 106.41 28.0114C106.87 27.231 107.512 26.6266 108.339 26.1981C109.18 25.7696 110.198 25.5554 111.391 25.5554C112.585 25.5554 113.595 25.7696 114.421 26.1981C115.263 26.6266 115.906 27.231 116.349 28.0114C116.808 28.7765 117.068 29.687 117.13 30.7429C117.145 31.0183 117.153 31.355 117.153 31.7528C117.153 32.1507 117.145 32.4873 117.13 32.7628C117.068 33.8033 116.816 34.7138 116.372 35.4942C115.944 36.2746 115.309 36.8791 114.467 37.3075C113.641 37.736 112.616 37.9502 111.391 37.9502ZM111.391 35.6779C112.202 35.6779 112.83 35.4254 113.274 34.9204C113.717 34.4001 113.962 33.6427 114.008 32.648C114.023 32.4185 114.031 32.1201 114.031 31.7528C114.031 31.3856 114.023 31.0872 114.008 30.8576C113.962 29.8783 113.717 29.1285 113.274 28.6082C112.83 28.0879 112.202 27.8278 111.391 27.8278C110.58 27.8278 109.953 28.0879 109.509 28.6082C109.065 29.1285 108.821 29.8783 108.775 30.8576C108.759 31.0872 108.752 31.3856 108.752 31.7528C108.752 32.1201 108.759 32.4185 108.775 32.648C108.821 33.6427 109.065 34.4001 109.509 34.9204C109.953 35.4254 110.58 35.6779 111.391 35.6779ZM118.64 37.7207C118.487 37.7207 118.357 37.6671 118.25 37.56C118.143 37.4529 118.089 37.3228 118.089 37.1698V26.3588C118.089 26.1905 118.143 26.0527 118.25 25.9456C118.357 25.8385 118.487 25.7849 118.64 25.7849H120.499C120.652 25.7849 120.782 25.8385 120.889 25.9456C121.012 26.0527 121.073 26.1905 121.073 26.3588V27.2999C121.425 26.8102 121.876 26.4353 122.427 26.1752C122.993 25.915 123.644 25.7849 124.378 25.7849H125.319C125.488 25.7849 125.618 25.8385 125.71 25.9456C125.817 26.0527 125.87 26.1828 125.87 26.3358V27.9885C125.87 28.1415 125.817 28.2716 125.71 28.3787C125.618 28.4858 125.488 28.5393 125.319 28.5393H123.529C122.795 28.5393 122.221 28.7459 121.808 29.1591C121.41 29.5723 121.211 30.1384 121.211 30.8576V37.1698C121.211 37.3228 121.157 37.4529 121.05 37.56C120.943 37.6671 120.805 37.7207 120.637 37.7207H118.64ZM131.038 37.9502C129.34 37.9502 127.993 37.4606 126.999 36.4812C126.004 35.5019 125.468 34.1094 125.392 32.3037C125.377 32.1507 125.369 31.9594 125.369 31.7299C125.369 31.485 125.377 31.2938 125.392 31.156C125.453 30.0084 125.713 29.0137 126.172 28.1721C126.647 27.3305 127.297 26.6878 128.123 26.244C128.95 25.7849 129.921 25.5554 131.038 25.5554C132.278 25.5554 133.318 25.8155 134.16 26.3358C135.002 26.8408 135.637 27.5524 136.065 28.4705C136.494 29.3733 136.708 30.4215 136.708 31.6151V32.0971C136.708 32.2501 136.654 32.3802 136.547 32.4873C136.44 32.5944 136.302 32.648 136.134 32.648H128.513C128.513 32.648 128.513 32.671 128.513 32.7169C128.513 32.7628 128.513 32.801 128.513 32.8316C128.529 33.3672 128.628 33.8645 128.812 34.3236C129.011 34.7674 129.294 35.127 129.661 35.4024C130.044 35.6779 130.495 35.8156 131.015 35.8156C131.444 35.8156 131.803 35.7544 132.094 35.6319C132.385 35.4942 132.622 35.3412 132.806 35.1729C132.989 35.0046 133.119 34.8668 133.196 34.7597C133.334 34.5761 133.441 34.469 133.517 34.4384C133.609 34.3925 133.739 34.3695 133.908 34.3695H135.882C136.035 34.3695 136.157 34.4154 136.249 34.5072C136.356 34.599 136.402 34.7138 136.387 34.8515C136.371 35.0964 136.241 35.3948 135.996 35.7467C135.767 36.0987 135.43 36.443 134.986 36.7796C134.543 37.1163 133.984 37.3994 133.311 37.6289C132.653 37.8431 131.895 37.9502 131.038 37.9502ZM128.513 30.7199H133.586V30.6511C133.586 30.0543 133.487 29.534 133.288 29.0902C133.089 28.6465 132.798 28.2945 132.416 28.0344C132.033 27.7742 131.574 27.6442 131.038 27.6442C130.503 27.6442 130.044 27.7742 129.661 28.0344C129.279 28.2945 128.988 28.6465 128.789 29.0902C128.605 29.534 128.513 30.0543 128.513 30.6511V30.7199Z" fill="black"/>
</svg>
