<svg width="414" height="211" viewBox="0 0 414 211" fill="none" xmlns="http://www.w3.org/2000/svg">
<g clip-path="url(#clip0_115_2905)">
<path d="M152.389 75.8463C151.245 74.1523 150.696 73.3541 148.009 73.5156C147.504 74.6847 146.991 75.8425 146.486 77.0116C147.284 77.6947 148.083 78.3679 148.881 79.051C149.575 78.9304 150.27 78.8 150.964 78.6795C151.246 78.2661 151.537 77.8641 151.82 77.4508C152.01 76.9127 152.199 76.3844 152.389 75.8463Z" fill="#FF6F59"/>
<path d="M243.928 132.54C250.787 132.9 252.214 126.267 251.106 120.414C248.865 118.498 247.054 118.182 243.934 118.684C241.985 120.753 240.55 122.766 240.034 126.895C241.154 129.919 241.502 130.506 243.928 132.54Z" fill="#FF6F59"/>
<path d="M31.4892 97.3077C31.8858 97.6994 32.271 98.0996 32.6675 98.4913L32.9935 98.5392C33.2268 98.4622 33.4699 98.3867 33.7032 98.3098C34.2542 97.5114 34.4657 97.2392 34.7541 95.7553C34.5688 95.5058 34.375 95.2449 34.1896 94.9953L32.8661 94.8011C32.5082 94.9709 32.139 95.1492 31.7811 95.319L31.4892 97.3077Z" fill="#FF6F59"/>
<path d="M218.218 128.423C219.339 131.165 219.417 132.146 222.161 133.732C227.388 132.558 229.083 128.572 227.772 123.063C226.394 121.871 225.005 120.676 222.683 120.962C219.86 121.771 218.628 124.39 218.218 128.423Z" fill="#FF6F59"/>
<path d="M334.104 120.426C326.056 112.493 320.473 125.854 319.603 134.186C320.667 139.861 318.192 152.465 327.324 150.531C335.541 148.786 340.387 126.634 334.102 120.436L334.104 120.426Z" fill="#FF6F59"/>
<path d="M69.6932 94.4653C69.9712 94.8396 70.2577 95.2253 70.5357 95.5996L72.8469 95.9389C73.2208 95.6602 73.606 95.3731 73.9799 95.0944C73.9685 94.4156 73.9572 93.7367 73.9458 93.0579C72.8755 92.0316 72.8691 91.8689 71.4439 91.68C70.1637 92.2905 70.0286 92.5234 69.6833 94.4638L69.6932 94.4653Z" fill="#FF6F59"/>
<path d="M292.539 125.474C292.805 126.756 293.062 128.027 293.328 129.309C295.659 131.37 297.794 131.743 301.162 131.136C306.271 126.165 307.667 115.485 297.547 114.384C296.946 114.629 296.353 114.886 295.752 115.131C293.816 117.464 293.062 120.952 292.549 125.475L292.539 125.474Z" fill="#FF6F59"/>
<path d="M137.813 131.5C139.738 129.245 140.065 127.504 139.544 124.315C138.545 123.491 137.536 122.666 136.537 121.842C133.687 121.323 131.94 121.471 130.635 123.007C129.502 123.852 129.048 124.745 128.729 126.781C129.481 128.74 129.67 129.789 131.12 131.184C133.834 132.351 135.332 132.116 137.825 131.491L137.813 131.5Z" fill="#FF6F59"/>
<path d="M52.07 122.625C52.6344 123.385 53.1989 124.145 53.7634 124.905L54.7511 125.05C56.5441 124.727 57.157 124.331 57.8254 122.459C57.1345 121.185 57.3814 120.877 55.806 120.131C55.0196 120.126 54.2332 120.122 53.4468 120.118C52.9917 120.951 52.5266 121.782 52.0714 122.615L52.07 122.625Z" fill="#FF6F59"/>
<path d="M6.51856 108.844C7.11498 109.386 7.71286 109.919 8.30929 110.461C8.65121 110.4 9.003 110.341 9.34492 110.28C9.72341 109.213 10.1132 108.138 10.4917 107.072C9.34331 106.166 9.26487 106.013 7.61597 105.973C7.25346 106.93 6.87962 107.896 6.51711 108.854L6.51856 108.844Z" fill="#FF6F59"/>
<path d="M42.3604 117.49C43.0541 117.37 43.7493 117.239 44.443 117.119C44.7256 116.705 45.0167 116.303 45.2993 115.89C45.9181 114.768 45.5918 114.104 45.4105 112.864C44.2569 112.2 43.2744 111.813 41.8236 112.004C40.2755 112.515 40.0254 112.913 39.6891 115.067C40.5795 115.875 41.4798 116.684 42.3702 117.492L42.3604 117.49ZM42.7975 114.512C42.8742 114.746 42.9494 114.989 43.0261 115.223C42.6842 115.284 42.3324 115.343 41.9905 115.404C42.147 115.094 42.3051 114.773 42.4616 114.463L42.7876 114.511L42.7975 114.512Z" fill="#FF6F59"/>
<path d="M80.6578 116.349C82.8258 123.096 93.7314 126.475 96.0434 117.253C100.134 109.596 82.1217 104.244 80.6578 116.349Z" fill="#FF6F59"/>
<path d="M146.769 123.344C148.113 126.634 149.78 130.194 155.335 129.331C161.106 128.167 161.736 119.264 157.228 116.429C151.843 113.041 147.259 117.19 146.769 123.344Z" fill="#FF6F59"/>
<path d="M223.575 66.6865C224.655 69.6446 224.826 70.266 227.143 72.2839C229.692 72.5165 230.788 71.9901 232.105 70.6471C233.712 67.1231 233.357 63.1494 229.685 61.8423C226.748 60.3299 224.002 63.2318 223.575 66.6865Z" fill="#FF6F59"/>
<path d="M172.398 65.937C173.087 67.7765 173.159 68.9392 174.453 70.2915C177.982 71.6887 182.54 69.366 180.888 65.4951C180.428 64.0227 179.83 63.6317 178.581 62.7914C175.791 62.4123 175.067 62.882 173.38 63.716C173.05 64.4558 172.709 65.1942 172.379 65.9341L172.398 65.937Z" fill="#FF6F59"/>
<path d="M207.362 94.3857C208.248 97.0121 207.942 98.544 210.979 99.6467C211.983 99.6828 212.996 99.7204 214 99.7565C215.422 98.3884 217.923 96.3299 217.005 93.1023C216.581 92.1405 216.167 91.1802 215.743 90.2185C213.901 89.362 212.08 88.6398 210.411 89.7694C208.662 90.4123 207.794 91.993 207.37 94.397L207.362 94.3857Z" fill="#FF6F59"/>
<path d="M303.353 90.9079C304.794 91.5438 306.188 92.1527 307.928 91.9129C311.697 91.1218 315.128 84.7929 312.216 81.0505C311.57 79.2677 309.96 78.2027 307.646 77.681C306.225 78.1497 304.804 78.6183 303.393 79.0884C302.238 81.1829 301.368 83.0564 300.953 86.5027C301.753 88.3383 301.972 89.5228 303.343 90.9065L303.353 90.9079Z" fill="#FF6F59"/>
<path d="M327.662 90.7563C328.854 95.631 327.712 98.5259 331.864 101.177C343.845 103.006 343.369 80.8116 336.78 76.8933C329.437 75.9166 328.426 83.0758 327.661 90.7662L327.662 90.7563Z" fill="#FF6F59"/>
<path d="M276.824 67.0729C273.629 67.8067 272.166 70.0076 271.697 74.4365C272.32 76.246 272.629 77.5751 273.377 79.0796C274.821 79.6858 276.034 80.2276 277.625 80.0367C282.735 78.9067 283.059 72.6474 281.359 68.4157C279.924 67.6087 278.83 66.8114 276.834 67.0744L276.824 67.0729Z" fill="#FF6F59"/>
<path d="M242.541 33.9839C242.351 34.522 242.163 35.0503 241.973 35.5884C242.05 35.822 242.125 36.0655 242.202 36.2991C243.079 36.9231 243.817 37.3953 245.127 37.062C246.271 36.5527 246.711 35.6167 246.226 34.181C246.165 33.8385 246.106 33.4862 246.045 33.1438C244.24 32.515 243.56 32.4758 242.551 33.9854L242.541 33.9839Z" fill="#FF6F59"/>
<path d="M194.443 124.933C193.6 116.38 179.981 115.332 179.044 126.393C182.098 134.047 195.474 135.445 194.443 124.933Z" fill="#FF6F59"/>
<path d="M285.104 109.515C285.922 109.302 286.742 109.078 287.561 108.865C288.721 107.489 289.326 106.527 289.661 103.766C289.004 102.881 288.347 101.996 287.69 101.112C287.044 100.906 286.398 100.7 285.752 100.494C284.031 100.948 283.362 101.376 282.113 102.325C281.891 103.08 281.67 103.836 281.448 104.592C282.264 107.208 281.865 108.625 285.112 109.527L285.104 109.515Z" fill="#FF6F59"/>
<path d="M204.446 137.216C202.434 137.79 201.472 139.054 200.793 141.41C201.702 143.535 201.905 144.282 203.51 145.862C204.638 145.805 205.778 145.74 206.906 145.683C208.584 143.736 209.246 142.186 208.865 139.209C208.068 138.526 207.268 137.853 206.471 137.17C205.793 137.181 205.115 137.193 204.437 137.205L204.446 137.216Z" fill="#FF6F59"/>
<path d="M258.248 117.743C259.852 118.362 261.857 118.727 263.254 118.144C268.389 116.775 270.477 106.671 265.716 103.637C264.702 102.367 262.761 101.91 261.142 102.633C257.947 103.569 256.515 107.482 256.05 112.023C256.795 114.376 256.688 116.068 258.246 117.752L258.248 117.743Z" fill="#FF6F59"/>
<path d="M277.603 130.721C274.585 133.886 273.065 137.231 272.313 143.801C273.394 147.437 273.198 149.318 276.252 151.474C287.973 153.013 291.38 128.831 277.613 130.722L277.603 130.721Z" fill="#FF6F59"/>
<path d="M244.743 154.622C245.452 156.596 245.331 157.832 247.134 159.026C249.222 160.333 251.251 159.297 252.889 158.86C255.781 155.454 255.258 151.931 253.407 148.455C251.799 147.724 250.449 147.091 248.785 147.777C246.15 148.542 245.112 150.805 244.743 154.622Z" fill="#FF6F59"/>
<path d="M375.456 132.913C372.793 130.572 370.883 130.11 367.296 131.039C365.684 132.743 364.456 134.301 363.965 137.645C365.145 141.224 365.486 143.235 370.074 144.282C375.642 142.371 377.056 139.132 375.457 132.903L375.456 132.913Z" fill="#FF6F59"/>
<path d="M371.343 158.669C368.557 160.605 367.181 162.687 366.635 167.782C367.79 171.257 367.611 172.686 371.045 174.514C373.243 174.119 374.361 173.717 376.008 172.877C378.539 167.386 378.73 159.551 371.343 158.669Z" fill="#FF6F59"/>
<path d="M343.711 160.698C344.792 165.435 344.919 175.915 352.823 172.173C361.107 168.254 356.87 151.34 352.685 147.815C351.314 147.947 349.941 148.089 348.579 148.223C345.778 151.157 344.403 154.614 343.713 160.688L343.711 160.698Z" fill="#FF6F59"/>
<path d="M348.21 203.606C351.96 199.164 350.859 193.393 348.599 189.473C347.97 189.158 347.341 188.833 346.711 188.519C341.415 187.893 339.464 192.114 338.934 197.858C339.695 199.547 340.466 201.237 341.227 202.925C343.761 204.015 345.715 204.039 348.209 203.616L348.21 203.606Z" fill="#FF6F59"/>
<path d="M307.921 197.693C309.128 196.829 309.673 196.758 310.344 195.006C310.099 194.404 309.843 193.811 309.598 193.209C308.311 192.838 308.325 192.739 307.239 193.196C305.959 193.807 305.824 194.04 305.479 195.98C306.292 196.554 307.107 197.119 307.921 197.693Z" fill="#FF6F59"/>
<path d="M370.191 196.351C371.183 198.326 372.524 200.191 375.798 199.539C377.537 199.097 377.961 198.411 379.16 197.324C379.213 194.967 378.627 194.284 377.806 192.729C376.639 192.224 375.484 191.711 374.317 191.206C373.232 191.724 372.137 192.24 371.052 192.758C370.764 193.959 370.479 195.15 370.191 196.351Z" fill="#FF6F59"/>
<path d="M387.056 136.647C388.305 140.581 390.809 146.76 397.126 143.866C403.809 140.814 402.945 127.932 397.534 124.996C390.654 124.299 387.83 129.039 387.058 136.638L387.056 136.647Z" fill="#FF6F59"/>
<path d="M352.988 74.5319C354.062 78.692 354.337 84.7259 360.357 84.0631C368.505 82.3076 367.367 60.9156 358.119 64.8039C354.694 65.797 353.46 69.5982 352.978 74.5305L352.988 74.5319Z" fill="#FF6F59"/>
<path d="M395.26 92.228C396.655 97.9915 395.72 100.715 401.024 103.555C402.153 103.498 403.292 103.433 404.421 103.376C409.888 97.5385 407.895 87.8159 401.807 84.4057C399.366 84.189 398.801 84.6721 397.268 85.4274C396.602 87.6947 395.926 89.9607 395.26 92.228Z" fill="#FF6F59"/>
<path d="M371.86 99.9417C373.553 105.183 374.27 117.002 383.605 114.168C392.624 111.429 389.662 95.3785 388.006 88.7881C379.615 81.5429 372.9 89.2797 371.86 99.9417Z" fill="#FF6F59"/>
<path d="M356.178 103.391C355.289 102.917 354.75 103.02 353.819 103.378C351.059 104.176 349.52 106.962 349.018 110.79C350.165 114.597 349.997 116.907 353.186 119.174C355.493 119.472 356.363 119.185 357.954 118.863C361.874 114.769 362.403 105.113 356.178 103.391Z" fill="#FF6F59"/>
<path d="M208.102 178.99L208.539 176.012L207.132 174.117C205.601 173.205 204.287 173.912 203.303 174.91C203.049 175.883 202.794 176.867 202.54 177.84C203.358 179.415 203.282 180.001 205.499 180.639C206.367 180.09 207.234 179.54 208.102 178.99Z" fill="#FF6F59"/>
<path d="M219.953 155.714C218.844 156.673 218.462 158.315 218.237 160.536C220.646 166.873 224.341 169.679 230.967 165.78C235.348 156.003 224.533 148.088 219.963 155.716L219.953 155.714Z" fill="#FF6F59"/>
<path d="M119.745 151.144C119.491 152.118 119.236 153.101 118.982 154.074C119.438 154.818 119.884 155.561 120.339 156.305L123.638 156.789C124.397 156.224 125.157 155.658 125.916 155.092C127.298 152.96 125.953 150.984 124.284 150.122C123.014 149.36 121.881 149.719 120.601 149.915C120.319 150.329 120.028 150.731 119.745 151.144Z" fill="#FF6F59"/>
<path d="M177.175 157.552C178.435 160.243 180.28 164.446 184.85 162.731C186.919 162.105 187.419 160.834 188.731 159.248C189.076 155.73 188.027 153.868 186.068 152.095C183.75 151.25 181.932 151.468 180.024 151.885C178.567 153.43 177.594 154.419 177.165 157.55L177.175 157.552Z" fill="#FF6F59"/>
<path d="M283.6 188.716C283.036 187.956 282.471 187.196 281.907 186.436C280.887 186.509 279.856 186.59 278.836 186.663C277.892 187.666 277.563 187.567 277.076 189.447C277.261 189.696 277.455 189.957 277.64 190.207C278.243 191.528 278.863 191.912 280.697 192.343C282.412 191.655 283.098 191.109 283.59 188.715L283.6 188.716Z" fill="#FF6F59"/>
<path d="M327.431 193.461C335.973 190.874 338.012 175.538 330.781 170.636C323.533 169.693 323.074 177.085 322.323 184.606C323.345 188.778 322.55 192.138 327.429 193.471L327.431 193.461Z" fill="#FF6F59"/>
<path d="M280.294 165.247C279.497 164.564 278.697 163.891 277.89 163.207C275.206 162.863 274.341 163.323 272.689 164.131C272.197 165.969 271.694 167.816 271.202 169.654C272.074 171.621 272.15 172.481 273.967 173.779C275.741 173.999 276.405 173.945 277.411 173.274C280.535 172.135 280.832 168.318 280.275 165.245L280.294 165.247Z" fill="#FF6F59"/>
<path d="M297.036 179.874C298.138 183.502 299.182 187.87 304.745 187.09C311.821 185.49 310.913 174.148 305.704 171.342C304.098 171.561 302.493 171.77 300.887 171.989C298.899 174.052 297.535 175.581 297.036 179.874Z" fill="#FF6F59"/>
<path d="M152.097 169.749C152.464 168.964 152.385 168.609 152.063 167.713C151.515 166.288 150.806 166.032 149.382 165.288C148.813 165.315 148.253 165.344 147.684 165.372C147.142 165.97 146.611 166.569 146.069 167.167C145.847 167.922 145.625 168.678 145.403 169.434C146.251 170.67 146.41 171.441 148.036 172.185L149.36 172.38C150.919 171.931 151.48 171.478 152.108 169.741L152.097 169.749Z" fill="#FF6F59"/>
<path d="M232.927 179.925C232.737 180.463 232.549 180.991 232.359 181.529L233.766 183.424L235.089 183.618C235.615 183.129 236.13 182.649 236.655 182.16C237.417 181.028 237.357 179.443 236.864 178.471C236.586 178.097 236.299 177.711 236.021 177.337C234.532 177.927 233.78 178.443 232.947 179.928L232.927 179.925Z" fill="#FF6F59"/>
<path d="M249.637 181.023C250.721 183.122 252.007 186.525 256.085 185.345C260.263 184.584 261.236 180.36 260.467 176.184C259.669 175.501 258.87 174.828 258.072 174.145C255.347 173.806 254.203 174.244 252.267 174.647C250.827 176.346 250.023 177.633 249.646 181.024L249.637 181.023Z" fill="#FF6F59"/>
<path d="M298.715 163.898C300.117 164.518 301.297 165.075 302.964 164.855C303.94 164.321 304.916 163.787 305.902 163.255C307.99 158.316 307.437 153.969 305.86 149.725C305.138 149.286 304.417 148.836 303.694 148.397C302.566 148.454 301.426 148.519 300.298 148.575C298.162 150.819 296.785 153.194 296.252 157.786C297.135 160.159 297.678 161.886 298.726 163.89L298.715 163.898Z" fill="#FF6F59"/>
<path d="M245.6 93.5798C247.788 91.2528 248.146 88.5361 247.524 85.079C246.297 84.2218 245.071 83.3647 243.855 82.509C241.896 82.929 240.611 82.9527 239.506 84.5694C238.35 85.5721 237.968 87.4162 237.742 89.7177C237.954 90.5373 238.177 91.3583 238.39 92.1779C240.651 93.9551 242.671 94.0798 245.611 93.5713L245.6 93.5798Z" fill="#FF6F59"/>
<path d="M175.329 101.176C182.105 99.3506 178.353 91.4319 174.007 89.4901C172.726 89.7571 171.457 90.0156 170.177 90.2825C168.859 91.8376 168.036 92.9801 167.654 95.9966C168.338 97.4514 169.023 98.9062 169.718 100.353C171.459 101.144 173.449 101.881 175.329 101.176Z" fill="#FF6F59"/>
<path d="M131.947 86.3594C127.956 84.4699 124.315 84.8047 123.672 89.875C124.205 90.8527 124.737 91.8304 125.268 92.818C127.211 93.6084 128.826 94.1488 130.6 93.2671C133.69 92.1539 133.165 88.5798 131.946 86.3693L131.947 86.3594Z" fill="#FF6F59"/>
<path d="M390.597 55.0467C389.087 56.7454 387.889 58.2373 387.315 61.3266C388.381 64.3738 388.536 65.1747 390.834 67.2505C392.206 67.1183 393.579 66.9761 394.94 66.8424C399.408 62.5961 398.973 53.5976 390.596 55.0566L390.597 55.0467Z" fill="#FF6F59"/>
<path d="M320.767 57.3004C321.322 59.6358 321.878 61.9712 322.433 64.3066C323.933 65.1534 325.434 66.061 327.62 65.745C335.118 64.0863 335.545 46.1179 326.282 47.2952C322.672 48.1703 321.259 52.2988 320.767 57.3004Z" fill="#FF6F59"/>
<path d="M185.335 30.6616C186.38 33.0284 186.435 33.9563 190.182 34.4153C190.817 33.9424 191.44 33.4779 192.074 33.0051C193.164 30.2542 193.008 28.6344 190.588 27.046C187.437 26.6543 185.919 27.5737 185.333 30.6715L185.335 30.6616Z" fill="#FF6F59"/>
<path d="M290.987 44.1364C291.512 43.6475 292.027 43.1672 292.553 42.6783C292.655 40.3283 292.116 39.6731 289.691 39.2161C289.252 39.9399 288.802 40.6624 288.363 41.3863C289.172 42.8189 289.437 43.2116 290.996 44.1378L290.987 44.1364Z" fill="#FF6F59"/>
</g>
<defs>
<clipPath id="clip0_115_2905">
<rect width="154.9" height="395.067" fill="white" transform="translate(0 153.258) rotate(-81.6504)"/>
</clipPath>
</defs>
</svg>
