<svg width="36" height="35" viewBox="0 0 36 35" fill="none" xmlns="http://www.w3.org/2000/svg">
<path d="M17.75 3.15137C22.4258 3.15137 22.9795 3.17187 24.8184 3.25391C26.5273 3.3291 27.4502 3.61621 28.0654 3.85547C28.8789 4.16992 29.4668 4.55273 30.0752 5.16113C30.6904 5.77637 31.0664 6.35742 31.3809 7.1709C31.6201 7.78613 31.9072 8.71582 31.9824 10.418C32.0645 12.2637 32.085 12.8174 32.085 17.4863C32.085 22.1621 32.0645 22.7158 31.9824 24.5547C31.9072 26.2637 31.6201 27.1865 31.3809 27.8018C31.0664 28.6152 30.6836 29.2031 30.0752 29.8115C29.46 30.4268 28.8789 30.8027 28.0654 31.1172C27.4502 31.3564 26.5205 31.6436 24.8184 31.7188C22.9727 31.8008 22.4189 31.8213 17.75 31.8213C13.0742 31.8213 12.5205 31.8008 10.6816 31.7188C8.97266 31.6436 8.0498 31.3564 7.43457 31.1172C6.62109 30.8027 6.0332 30.4199 5.4248 29.8115C4.80957 29.1963 4.43359 28.6152 4.11914 27.8018C3.87988 27.1865 3.59277 26.2568 3.51758 24.5547C3.43555 22.709 3.41504 22.1553 3.41504 17.4863C3.41504 12.8105 3.43555 12.2568 3.51758 10.418C3.59277 8.70898 3.87988 7.78613 4.11914 7.1709C4.43359 6.35742 4.81641 5.76953 5.4248 5.16113C6.04004 4.5459 6.62109 4.16992 7.43457 3.85547C8.0498 3.61621 8.97949 3.3291 10.6816 3.25391C12.5205 3.17187 13.0742 3.15137 17.75 3.15137ZM17.75 0C12.999 0 12.4043 0.0205078 10.5381 0.102539C8.67871 0.18457 7.40039 0.485351 6.29297 0.916016C5.1377 1.36719 4.16016 1.96191 3.18945 2.93945C2.21191 3.91016 1.61719 4.8877 1.16602 6.03613C0.735352 7.15039 0.43457 8.42187 0.352539 10.2812C0.270508 12.1543 0.25 12.749 0.25 17.5C0.25 22.251 0.270508 22.8457 0.352539 24.7119C0.43457 26.5713 0.735352 27.8496 1.16602 28.957C1.61719 30.1123 2.21191 31.0898 3.18945 32.0605C4.16016 33.0313 5.1377 33.6328 6.28613 34.0771C7.40039 34.5078 8.67187 34.8086 10.5312 34.8906C12.3975 34.9727 12.9922 34.9932 17.7432 34.9932C22.4941 34.9932 23.0889 34.9727 24.9551 34.8906C26.8145 34.8086 28.0928 34.5078 29.2002 34.0771C30.3486 33.6328 31.3262 33.0313 32.2969 32.0605C33.2676 31.0898 33.8691 30.1123 34.3135 28.9639C34.7441 27.8496 35.0449 26.5781 35.127 24.7188C35.209 22.8525 35.2295 22.2578 35.2295 17.5068C35.2295 12.7559 35.209 12.1611 35.127 10.2949C35.0449 8.43555 34.7441 7.15723 34.3135 6.0498C33.8828 4.8877 33.2881 3.91016 32.3105 2.93945C31.3398 1.96875 30.3623 1.36719 29.2139 0.922852C28.0996 0.492187 26.8281 0.191406 24.9687 0.109375C23.0957 0.0205078 22.501 0 17.75 0Z" fill="white"/>
<path d="M17.75 8.51074C12.7871 8.51074 8.76074 12.5371 8.76074 17.5C8.76074 22.4629 12.7871 26.4893 17.75 26.4893C22.7129 26.4893 26.7393 22.4629 26.7393 17.5C26.7393 12.5371 22.7129 8.51074 17.75 8.51074ZM17.75 23.3311C14.5303 23.3311 11.9189 20.7197 11.9189 17.5C11.9189 14.2803 14.5303 11.6689 17.75 11.6689C20.9697 11.6689 23.5811 14.2803 23.5811 17.5C23.5811 20.7197 20.9697 23.3311 17.75 23.3311Z" fill="white"/>
<path d="M29.1934 8.15528C29.1934 9.31739 28.25 10.2539 27.0947 10.2539C25.9326 10.2539 24.9961 9.31055 24.9961 8.15528C24.9961 6.99317 25.9395 6.05664 27.0947 6.05664C28.25 6.05664 29.1934 7 29.1934 8.15528Z" fill="white"/>
</svg>
