<svg width="36" height="35" viewBox="0 0 36 35" fill="none" xmlns="http://www.w3.org/2000/svg">
<path d="M33.1592 0H3.33398C1.90527 0 0.75 1.12793 0.75 2.52246V32.4707C0.75 33.8652 1.90527 35 3.33398 35H33.1592C34.5879 35 35.75 33.8652 35.75 32.4775V2.52246C35.75 1.12793 34.5879 0 33.1592 0ZM11.1338 29.8252H5.93848V13.1182H11.1338V29.8252ZM8.53613 10.8418C6.86816 10.8418 5.52148 9.49512 5.52148 7.83398C5.52148 6.17285 6.86816 4.82617 8.53613 4.82617C10.1973 4.82617 11.5439 6.17285 11.5439 7.83398C11.5439 9.48828 10.1973 10.8418 8.53613 10.8418ZM30.5752 29.8252H25.3867V21.7041C25.3867 19.7695 25.3525 17.2744 22.6865 17.2744C19.9863 17.2744 19.5762 19.3867 19.5762 21.5674V29.8252H14.3945V13.1182H19.3711V15.4014H19.4395C20.1299 14.0889 21.8252 12.7012 24.3477 12.7012C29.6045 12.7012 30.5752 16.1602 30.5752 20.6582V29.8252V29.8252Z" fill="white"/>
</svg>
