<?xml version="1.0" encoding="UTF-8"?>
<svg id="Logo" xmlns="http://www.w3.org/2000/svg" version="1.1" xmlns:xlink="http://www.w3.org/1999/xlink" viewBox="0 0 504.7 101.6">
  <defs>
    <style>
      .cls-1 {
        fill: url(#linear-gradient);
      }

      .cls-1, .cls-2, .cls-3 {
        stroke-width: 0px;
      }

      .cls-2 {
        fill: url(#linear-gradient-2);
      }

      .cls-3 {
        fill: #fff;
      }
    </style>
    <linearGradient id="linear-gradient" x1="484.6" y1="72.9" x2="496.8" y2="85.1" gradientTransform="translate(375.3 -404.5) rotate(67.5)" gradientUnits="userSpaceOnUse">
      <stop offset="0" stop-color="#5aecde"/>
      <stop offset="1" stop-color="#2ec4b6"/>
    </linearGradient>
    <linearGradient id="linear-gradient-2" x1="-1.2" y1="20.6" x2="50.6" y2="72.5" gradientTransform="matrix(1,0,0,1,0,0)" xlink:href="#linear-gradient"/>
  </defs>
  <g id="Lenders">
    <g>
      <path class="cls-3" d="M97.5,13h15.9v59h30.1v15.2h-46V13Z"/>
      <path class="cls-3" d="M174.8,32.8c3.9,0,7.5.7,10.8,2.2,3.3,1.4,6.1,3.4,8.5,5.9,2.4,2.5,4.2,5.5,5.5,8.9,1.3,3.4,2,7,2,10.9s0,1.9-.2,2.8-.2,1.7-.4,2.7h-39.1c1.1,3,2.8,5.4,5.3,7.1,2.5,1.7,5.4,2.5,8.8,2.5s4.4-.5,6.5-1.4c2-.9,3.7-2.2,4.9-3.7l11.6,6.8c-2.5,3.6-5.7,6.4-9.6,8.3-3.9,1.9-8.4,2.9-13.5,2.9s-8.5-.7-12-2.1c-3.6-1.4-6.6-3.4-9.1-5.9-2.5-2.5-4.5-5.5-5.8-8.9-1.4-3.4-2.1-7.1-2.1-11s.7-7.6,2.1-11c1.4-3.4,3.3-6.3,5.8-8.9,2.5-2.5,5.4-4.5,8.9-5.9,3.4-1.4,7.2-2.1,11.4-2.1ZM187.3,54.3c-.5-2.7-1.9-4.8-4.3-6.3-2.4-1.5-5.2-2.2-8.5-2.2s-3.3.2-4.9.7c-1.6.5-2.9,1.1-4.1,1.8-1.2.7-2.1,1.6-2.8,2.6-.7,1-1.1,2.1-1.2,3.3h25.8Z"/>
      <path class="cls-3" d="M257.7,87.2h-15.2v-31.7c0-1.8-.3-3.4-.9-4.6-.6-1.2-1.4-2.2-2.3-3-.9-.7-1.9-1.3-3.1-1.5-1.1-.3-2.2-.4-3.3-.4s-2.2.2-3.3.6c-1.1.4-2.1,1-2.9,1.9-.8.9-1.5,2.1-2.1,3.6-.5,1.5-.8,3.3-.8,5.5v29.7h-15.2v-53h15.2v3.7c1.7-1.5,3.6-2.7,5.8-3.7,2.2-1,4.5-1.5,7-1.5s4.1.3,6.5,1c2.4.6,4.7,1.8,6.8,3.4,2.1,1.7,3.9,4,5.4,6.9,1.5,3,2.2,6.8,2.2,11.4v31.7Z"/>
      <path class="cls-3" d="M320.4,87.2h-15.1v-4c-1.7,1.7-3.7,3-5.9,4-2.2,1-4.8,1.5-7.8,1.5s-7.9-.7-11.2-2.1c-3.3-1.4-6.1-3.4-8.5-5.8-2.3-2.5-4.1-5.4-5.4-8.8-1.2-3.4-1.9-7.1-1.9-11.1s.6-7.8,1.9-11.2c1.2-3.4,3-6.4,5.4-8.9,2.3-2.5,5.2-4.5,8.5-5.9,3.3-1.4,7.1-2.1,11.2-2.1s5.6.5,7.8,1.5c2.2,1,4.2,2.4,5.9,4.1V13h15.1v74.2ZM292,74.7c4,0,7.2-1.3,9.6-4,2.5-2.6,3.7-6,3.7-10.1s-1.2-7.3-3.7-9.8c-2.5-2.5-5.7-3.8-9.6-3.8s-3.5.4-5,1.1c-1.5.7-2.8,1.7-3.9,3-1.1,1.2-1.9,2.7-2.5,4.3-.6,1.7-.9,3.4-.9,5.4s.3,3.7.9,5.4c.6,1.7,1.4,3.2,2.5,4.4,1.1,1.2,2.4,2.2,3.9,3,1.5.7,3.2,1.1,5,1.1Z"/>
      <path class="cls-3" d="M355.7,32.8c3.9,0,7.5.7,10.8,2.2,3.3,1.4,6.1,3.4,8.5,5.9,2.4,2.5,4.2,5.5,5.5,8.9,1.3,3.4,2,7,2,10.9s0,1.9-.2,2.8c-.1.8-.2,1.7-.4,2.7h-39.1c1.1,3,2.8,5.4,5.3,7.1,2.5,1.7,5.4,2.5,8.8,2.5s4.4-.5,6.5-1.4c2-.9,3.7-2.2,4.9-3.7l11.6,6.8c-2.5,3.6-5.7,6.4-9.6,8.3-3.9,1.9-8.4,2.9-13.5,2.9s-8.5-.7-12-2.1c-3.6-1.4-6.6-3.4-9.1-5.9-2.5-2.5-4.5-5.5-5.8-8.9-1.4-3.4-2.1-7.1-2.1-11s.7-7.6,2.1-11,3.3-6.3,5.8-8.9c2.5-2.5,5.4-4.5,8.9-5.9,3.4-1.4,7.2-2.1,11.4-2.1ZM368.2,54.3c-.5-2.7-1.9-4.8-4.3-6.3-2.4-1.5-5.2-2.2-8.5-2.2s-3.3.2-4.9.7c-1.6.5-2.9,1.1-4.1,1.8-1.2.7-2.1,1.6-2.8,2.6-.7,1-1.1,2.1-1.2,3.3h25.8Z"/>
      <path class="cls-3" d="M421.8,48.5c-.7-.2-1.5-.3-2.4-.3-4.4,0-7.9,1.2-10.6,3.6-2.7,2.4-4,5.5-4,9.5v26h-15.2v-53h15.2v9.5c1.1-2.5,3.1-4.7,5.8-6.6,2.8-1.9,6.3-2.9,10.6-2.9h1.7l-1.1,14.3Z"/>
      <path class="cls-3" d="M445.8,49.3c0,1.2.7,2.1,2.2,2.7,1.5.6,3.3,1.1,5.6,1.6,2.2.5,4.6,1,7.3,1.6,2.6.6,5,1.5,7.3,2.8,2.2,1.2,4.1,2.9,5.6,5.1,1.5,2.2,2.2,5,2.2,8.5s-.7,5.3-2,7.4c-1.3,2.1-3.1,3.9-5.2,5.3-2.2,1.4-4.7,2.5-7.5,3.2-2.8.7-5.8,1.1-8.9,1.1-5.7,0-10.5-1-14.5-3.1-4-2.1-7.1-5.2-9.1-9.3l12.3-6.4c.9,2.4,2.4,4.1,4.3,5.2,2,1.1,4.3,1.6,7,1.6s2.1-.1,3.2-.3c1.1-.2,2.1-.5,2.9-1,.8-.4,1.5-1,2.1-1.6s.8-1.4.8-2.2c0-1.3-.8-2.3-2.3-3-1.5-.7-3.4-1.3-5.7-1.9-2.3-.6-4.7-1.1-7.4-1.7-2.6-.6-5.1-1.5-7.4-2.6-2.3-1.2-4.2-2.7-5.7-4.7-1.5-2-2.3-4.6-2.3-7.7s.6-5.1,1.7-7.2,2.8-3.9,4.8-5.4c2-1.4,4.3-2.5,7-3.3,2.7-.7,5.4-1.1,8.3-1.1,4.7,0,8.9.9,12.6,2.8,3.7,1.9,6.7,4.6,8.9,8.3l-12.3,6c-.9-1.7-2.1-3-3.5-3.9-1.4-.9-3.3-1.3-5.7-1.3s-3.7.4-4.9,1.2c-1.2.8-1.8,1.9-1.8,3.3Z"/>
    </g>
  </g>
  <g id="Ellipse_1" data-name="Ellipse 1">
    <circle class="cls-1" cx="490.3" cy="78.6" r="8.6" transform="translate(230.1 501.5) rotate(-67.5)"/>
  </g>
  <g id="Shape_5" data-name="Shape 5">
    <path class="cls-2" d="M5.8,5v22.7h55.2L38.2,4.9H5.8ZM60.9,27.7L17.7,96.7h28.6l32.8-52.9-18.2-16.2Z"/>
  </g>
</svg>