<svg width="153" height="52" viewBox="0 0 153 52" fill="none" xmlns="http://www.w3.org/2000/svg">
<rect x="0.564575" y="0.447876" width="151.988" height="50.4607" rx="7.91247" stroke="black" stroke-width="0.895751" fill="white"/>
<path d="M30.614 30.2324C34.0525 28.3106 36.682 26.8463 36.9067 26.7319C37.6259 26.3429 38.3675 25.3134 36.9067 24.5126C36.4347 24.261 33.8952 22.8424 30.614 21.0121L26.0967 25.6337L30.614 30.2324Z" fill="#FFD400"/>
<path d="M26.0967 25.6337L11.6683 40.4365C12.0054 40.4822 12.3875 40.3907 12.837 40.139C13.7809 39.6128 23.8043 34.0303 30.614 30.2324L26.0967 25.6337Z" fill="#FF3333"/>
<path d="M26.0967 25.6337L30.614 21.0121C30.614 21.0121 13.8483 11.7003 12.837 11.1512C12.4549 10.9224 12.0279 10.8538 11.6459 10.9224L26.0967 25.6337Z" fill="#48FF48"/>
<path d="M26.0967 25.6337L11.6459 10.9224C11.0616 11.0597 10.5671 11.5859 10.5671 12.6612C10.5671 14.3772 10.5671 37.2563 10.5671 38.6977C10.5671 39.6815 10.9492 40.3907 11.6684 40.4593L26.0967 25.6337Z" fill="#3BCCFF"/>
<path d="M49.0017 17.5729C48.3374 17.5729 47.7707 17.4574 47.3014 17.2263C46.8393 16.9953 46.4783 16.6632 46.2184 16.23C45.9657 15.7896 45.8285 15.2661 45.8068 14.6596C45.7996 14.3492 45.796 14.0171 45.796 13.6633C45.796 13.3023 45.7996 12.9629 45.8068 12.6453C45.8285 12.046 45.9657 11.5334 46.2184 11.1074C46.4783 10.6814 46.8429 10.3529 47.3122 10.1219C47.7887 9.89083 48.3519 9.77531 49.0017 9.77531C49.5287 9.77531 49.9908 9.84751 50.3879 9.99191C50.785 10.1291 51.1135 10.3096 51.3734 10.5334C51.6406 10.75 51.8391 10.9847 51.9691 11.2374C52.1063 11.4901 52.1785 11.7247 52.1857 11.9413C52.1929 12.0063 52.1749 12.0604 52.1315 12.1038C52.0882 12.1471 52.0305 12.1687 51.9583 12.1687H50.8428C50.7706 12.1687 50.7164 12.1543 50.6803 12.1254C50.6442 12.0965 50.6117 12.0532 50.5829 11.9955C50.5251 11.8438 50.4348 11.6958 50.3121 11.5514C50.1894 11.3998 50.0233 11.2735 49.8139 11.1724C49.6045 11.0713 49.3338 11.0208 49.0017 11.0208C48.5107 11.0208 48.1172 11.1507 47.8212 11.4106C47.5324 11.6706 47.3772 12.1001 47.3555 12.6994C47.3339 13.3275 47.3339 13.9629 47.3555 14.6055C47.3772 15.2192 47.536 15.6596 47.832 15.9267C48.1353 16.1939 48.5324 16.3275 49.0233 16.3275C49.3482 16.3275 49.637 16.2697 49.8897 16.1542C50.1497 16.0387 50.3518 15.8582 50.4962 15.6127C50.6478 15.3672 50.7236 15.0531 50.7236 14.6705V14.3347H49.4024C49.3302 14.3347 49.2688 14.3095 49.2183 14.2589C49.1677 14.2084 49.1425 14.1434 49.1425 14.064V13.49C49.1425 13.4106 49.1677 13.3456 49.2183 13.2951C49.2688 13.2445 49.3302 13.2192 49.4024 13.2192H51.9908C52.0702 13.2192 52.1315 13.2445 52.1749 13.2951C52.2254 13.3456 52.2507 13.4106 52.2507 13.49V14.6271C52.2507 15.2336 52.1171 15.7571 51.85 16.1975C51.59 16.6379 51.2146 16.9773 50.7236 17.2155C50.2399 17.4538 49.6659 17.5729 49.0017 17.5729ZM55.935 17.5729C55.1336 17.5729 54.4982 17.3419 54.0289 16.8798C53.5596 16.4177 53.3069 15.7607 53.2708 14.9087C53.2636 14.8365 53.26 14.7463 53.26 14.638C53.26 14.5225 53.2636 14.4322 53.2708 14.3672C53.2997 13.8257 53.4224 13.3564 53.639 12.9593C53.8628 12.5622 54.1697 12.259 54.5596 12.0496C54.9495 11.833 55.4079 11.7247 55.935 11.7247C56.5198 11.7247 57.0108 11.8474 57.4079 12.0929C57.805 12.3312 58.1046 12.6669 58.3067 13.1001C58.5089 13.5261 58.61 14.0207 58.61 14.5838V14.8113C58.61 14.8835 58.5847 14.9448 58.5342 14.9954C58.4836 15.0459 58.4187 15.0712 58.3392 15.0712H54.7437C54.7437 15.0712 54.7437 15.082 54.7437 15.1037C54.7437 15.1253 54.7437 15.1434 54.7437 15.1578C54.7509 15.4105 54.7978 15.6452 54.8845 15.8618C54.9783 16.0711 55.1119 16.2408 55.2852 16.3708C55.4657 16.5007 55.6787 16.5657 55.9242 16.5657C56.1263 16.5657 56.296 16.5368 56.4332 16.4791C56.5703 16.4141 56.6822 16.3419 56.7689 16.2625C56.8555 16.1831 56.9169 16.1181 56.953 16.0675C57.018 15.9809 57.0685 15.9304 57.1046 15.9159C57.1479 15.8943 57.2093 15.8834 57.2887 15.8834H58.2201C58.2923 15.8834 58.3501 15.9051 58.3934 15.9484C58.4439 15.9917 58.4656 16.0459 58.4584 16.1109C58.4511 16.2264 58.3898 16.3672 58.2743 16.5332C58.166 16.6993 58.0071 16.8617 57.7977 17.0206C57.5884 17.1794 57.3248 17.313 57.0071 17.4213C56.6967 17.5224 56.3393 17.5729 55.935 17.5729ZM54.7437 14.1615H57.1371V14.129C57.1371 13.8474 57.0902 13.6019 56.9963 13.3925C56.9025 13.1831 56.7653 13.0171 56.5848 12.8943C56.4043 12.7716 56.1877 12.7102 55.935 12.7102C55.6823 12.7102 55.4657 12.7716 55.2852 12.8943C55.1047 13.0171 54.9675 13.1831 54.8736 13.3925C54.787 13.6019 54.7437 13.8474 54.7437 14.129V14.1615ZM62.2835 17.4646C61.8503 17.4646 61.4857 17.3888 61.1896 17.2372C60.8936 17.0856 60.6734 16.8617 60.529 16.5657C60.3846 16.2625 60.3124 15.887 60.3124 15.4394V12.981H59.4568C59.3846 12.981 59.3233 12.9557 59.2727 12.9052C59.2222 12.8546 59.1969 12.7933 59.1969 12.7211V12.0929C59.1969 12.0207 59.2222 11.9594 59.2727 11.9088C59.3233 11.8583 59.3846 11.833 59.4568 11.833H60.3124V10.0352C60.3124 9.96303 60.3341 9.90166 60.3774 9.85112C60.4279 9.80058 60.4929 9.77531 60.5723 9.77531H61.4496C61.5218 9.77531 61.5831 9.80058 61.6337 9.85112C61.6842 9.90166 61.7095 9.96303 61.7095 10.0352V11.833H63.0632C63.1354 11.833 63.1968 11.8583 63.2473 11.9088C63.2979 11.9594 63.3231 12.0207 63.3231 12.0929V12.7211C63.3231 12.7933 63.2979 12.8546 63.2473 12.9052C63.1968 12.9557 63.1354 12.981 63.0632 12.981H61.7095V15.3311C61.7095 15.6271 61.76 15.8582 61.8611 16.0242C61.9694 16.1903 62.1535 16.2733 62.4134 16.2733H63.1607C63.2329 16.2733 63.2943 16.2986 63.3448 16.3491C63.3953 16.3997 63.4206 16.461 63.4206 16.5332V17.2047C63.4206 17.2769 63.3953 17.3382 63.3448 17.3888C63.2943 17.4393 63.2329 17.4646 63.1607 17.4646H62.2835ZM67.1161 17.4646C67.0439 17.4646 66.9825 17.4393 66.932 17.3888C66.8814 17.3382 66.8562 17.2769 66.8562 17.2047V12.0929C66.8562 12.0207 66.8814 11.9594 66.932 11.9088C66.9825 11.8583 67.0439 11.833 67.1161 11.833H68.015C68.0944 11.833 68.1558 11.8583 68.1991 11.9088C68.2496 11.9594 68.2749 12.0207 68.2749 12.0929V17.2047C68.2749 17.2769 68.2496 17.3382 68.1991 17.3888C68.1558 17.4393 68.0944 17.4646 68.015 17.4646H67.1161ZM67.0728 10.9016C66.9934 10.9016 66.9284 10.88 66.8778 10.8366C66.8345 10.7861 66.8129 10.7211 66.8129 10.6417V9.86195C66.8129 9.78975 66.8345 9.72838 66.8778 9.67784C66.9284 9.6273 66.9934 9.60203 67.0728 9.60203H68.0583C68.1377 9.60203 68.2027 9.6273 68.2532 9.67784C68.3038 9.72838 68.3291 9.78975 68.3291 9.86195V10.6417C68.3291 10.7211 68.3038 10.7861 68.2532 10.8366C68.2027 10.88 68.1377 10.9016 68.0583 10.9016H67.0728ZM72.2568 17.4646C71.8236 17.4646 71.459 17.3888 71.163 17.2372C70.8669 17.0856 70.6467 16.8617 70.5023 16.5657C70.3579 16.2625 70.2857 15.887 70.2857 15.4394V12.981H69.4302C69.358 12.981 69.2966 12.9557 69.246 12.9052C69.1955 12.8546 69.1702 12.7933 69.1702 12.7211V12.0929C69.1702 12.0207 69.1955 11.9594 69.246 11.9088C69.2966 11.8583 69.358 11.833 69.4302 11.833H70.2857V10.0352C70.2857 9.96303 70.3074 9.90166 70.3507 9.85112C70.4012 9.80058 70.4662 9.77531 70.5456 9.77531H71.4229C71.4951 9.77531 71.5564 9.80058 71.607 9.85112C71.6575 9.90166 71.6828 9.96303 71.6828 10.0352V11.833H73.0365C73.1087 11.833 73.1701 11.8583 73.2206 11.9088C73.2712 11.9594 73.2965 12.0207 73.2965 12.0929V12.7211C73.2965 12.7933 73.2712 12.8546 73.2206 12.9052C73.1701 12.9557 73.1087 12.981 73.0365 12.981H71.6828V15.3311C71.6828 15.6271 71.7333 15.8582 71.8344 16.0242C71.9427 16.1903 72.1268 16.2733 72.3867 16.2733H73.134C73.2062 16.2733 73.2676 16.2986 73.3181 16.3491C73.3687 16.3997 73.3939 16.461 73.3939 16.5332V17.2047C73.3939 17.2769 73.3687 17.3382 73.3181 17.3888C73.2676 17.4393 73.2062 17.4646 73.134 17.4646H72.2568ZM77.5055 17.4646C77.4333 17.4646 77.3719 17.4393 77.3214 17.3888C77.2709 17.3382 77.2456 17.2769 77.2456 17.2047V12.981H76.3684C76.2962 12.981 76.2348 12.9557 76.1843 12.9052C76.1337 12.8546 76.1084 12.7933 76.1084 12.7211V12.0929C76.1084 12.0207 76.1337 11.9594 76.1843 11.9088C76.2348 11.8583 76.2962 11.833 76.3684 11.833H77.2456V11.389C77.2456 10.9558 77.325 10.5984 77.4839 10.3168C77.6427 10.028 77.8773 9.81141 78.1878 9.66701C78.4983 9.52261 78.8918 9.45041 79.3683 9.45041H80.1047C80.1841 9.45041 80.2455 9.47568 80.2888 9.52622C80.3394 9.57676 80.3646 9.63813 80.3646 9.71033V10.3385C80.3646 10.4107 80.3394 10.472 80.2888 10.5226C80.2455 10.5731 80.1841 10.5984 80.1047 10.5984H79.4116C79.1228 10.5984 78.9242 10.6706 78.8159 10.815C78.7076 10.9594 78.6535 11.1688 78.6535 11.4431V11.833H79.9964C80.0758 11.833 80.1372 11.8583 80.1805 11.9088C80.2311 11.9594 80.2563 12.0207 80.2563 12.0929V12.7211C80.2563 12.7933 80.2311 12.8546 80.1805 12.9052C80.1372 12.9557 80.0758 12.981 79.9964 12.981H78.6535V17.2047C78.6535 17.2769 78.6282 17.3382 78.5777 17.3888C78.5271 17.4393 78.4658 17.4646 78.3936 17.4646H77.5055ZM81.3833 17.4646C81.3111 17.4646 81.2498 17.4393 81.1992 17.3888C81.1487 17.3382 81.1234 17.2769 81.1234 17.2047V12.1038C81.1234 12.0243 81.1487 11.9594 81.1992 11.9088C81.2498 11.8583 81.3111 11.833 81.3833 11.833H82.2606C82.3328 11.833 82.3941 11.8583 82.4447 11.9088C82.5024 11.9594 82.5313 12.0243 82.5313 12.1038V12.5478C82.6974 12.3167 82.9104 12.1399 83.1703 12.0171C83.4374 11.8944 83.7443 11.833 84.0908 11.833H84.5349C84.6143 11.833 84.6756 11.8583 84.719 11.9088C84.7695 11.9594 84.7948 12.0207 84.7948 12.0929V12.8727C84.7948 12.9449 84.7695 13.0063 84.719 13.0568C84.6756 13.1073 84.6143 13.1326 84.5349 13.1326H83.6901C83.3436 13.1326 83.0728 13.2301 82.8779 13.425C82.6901 13.62 82.5963 13.8871 82.5963 14.2264V17.2047C82.5963 17.2769 82.571 17.3382 82.5205 17.3888C82.4699 17.4393 82.405 17.4646 82.3255 17.4646H81.3833ZM88.0563 17.5729C87.4787 17.5729 86.9913 17.4718 86.5942 17.2697C86.2044 17.0675 85.9047 16.7823 85.6954 16.4141C85.4932 16.0459 85.3777 15.6163 85.3488 15.1253C85.3416 14.9954 85.338 14.8365 85.338 14.6488C85.338 14.4611 85.3416 14.3022 85.3488 14.1723C85.3777 13.6741 85.4968 13.2445 85.7062 12.8835C85.9228 12.5153 86.226 12.2301 86.6159 12.0279C87.013 11.8258 87.4931 11.7247 88.0563 11.7247C88.6194 11.7247 89.096 11.8258 89.4858 12.0279C89.8829 12.2301 90.1862 12.5153 90.3956 12.8835C90.6122 13.2445 90.7349 13.6741 90.7638 14.1723C90.771 14.3022 90.7746 14.4611 90.7746 14.6488C90.7746 14.8365 90.771 14.9954 90.7638 15.1253C90.7349 15.6163 90.6158 16.0459 90.4064 16.4141C90.2042 16.7823 89.9046 17.0675 89.5075 17.2697C89.1176 17.4718 88.6339 17.5729 88.0563 17.5729ZM88.0563 16.5007C88.4389 16.5007 88.735 16.3816 88.9443 16.1433C89.1537 15.8979 89.2692 15.5405 89.2909 15.0712C89.2981 14.9629 89.3017 14.8221 89.3017 14.6488C89.3017 14.4755 89.2981 14.3347 89.2909 14.2264C89.2692 13.7644 89.1537 13.4106 88.9443 13.1651C88.735 12.9196 88.4389 12.7969 88.0563 12.7969C87.6736 12.7969 87.3776 12.9196 87.1682 13.1651C86.9588 13.4106 86.8433 13.7644 86.8217 14.2264C86.8144 14.3347 86.8108 14.4755 86.8108 14.6488C86.8108 14.8221 86.8144 14.9629 86.8217 15.0712C86.8433 15.5405 86.9588 15.8979 87.1682 16.1433C87.3776 16.3816 87.6736 16.5007 88.0563 16.5007ZM92.2345 17.4646C92.1623 17.4646 92.1009 17.4393 92.0504 17.3888C91.9998 17.3382 91.9745 17.2769 91.9745 17.2047V12.0929C91.9745 12.0207 91.9998 11.9594 92.0504 11.9088C92.1009 11.8583 92.1623 11.833 92.2345 11.833H93.0792C93.1514 11.833 93.2128 11.8583 93.2633 11.9088C93.3139 11.9594 93.3391 12.0207 93.3391 12.0929V12.4611C93.4907 12.259 93.6929 12.0893 93.9456 11.9521C94.2055 11.8077 94.5124 11.7319 94.8662 11.7247C95.6892 11.7103 96.2632 12.0316 96.5881 12.6886C96.7542 12.3998 96.9924 12.1687 97.3029 11.9955C97.6206 11.815 97.9707 11.7247 98.3534 11.7247C98.7288 11.7247 99.0682 11.8113 99.3714 11.9846C99.6819 12.1579 99.9238 12.4214 100.097 12.7752C100.278 13.1218 100.368 13.5622 100.368 14.0965V17.2047C100.368 17.2769 100.343 17.3382 100.292 17.3888C100.241 17.4393 100.18 17.4646 100.108 17.4646H99.2198C99.1476 17.4646 99.0862 17.4393 99.0357 17.3888C98.9852 17.3382 98.9599 17.2769 98.9599 17.2047V14.1831C98.9599 13.8582 98.913 13.6019 98.8191 13.4142C98.7252 13.2192 98.5989 13.0821 98.44 13.0026C98.2812 12.9232 98.1043 12.8835 97.9094 12.8835C97.7505 12.8835 97.5917 12.9232 97.4329 13.0026C97.274 13.0821 97.1441 13.2192 97.043 13.4142C96.9419 13.6019 96.8914 13.8582 96.8914 14.1831V17.2047C96.8914 17.2769 96.8661 17.3382 96.8155 17.3888C96.765 17.4393 96.7036 17.4646 96.6314 17.4646H95.7434C95.664 17.4646 95.599 17.4393 95.5484 17.3888C95.5051 17.3382 95.4835 17.2769 95.4835 17.2047V14.1831C95.4835 13.8582 95.4329 13.6019 95.3318 13.4142C95.2308 13.2192 95.1008 13.0821 94.942 13.0026C94.7831 12.9232 94.6135 12.8835 94.433 12.8835C94.2669 12.8835 94.1044 12.9268 93.9456 13.0135C93.7868 13.0929 93.6568 13.2265 93.5557 13.4142C93.4546 13.6019 93.4041 13.8582 93.4041 14.1831V17.2047C93.4041 17.2769 93.3788 17.3382 93.3283 17.3888C93.2778 17.4393 93.2164 17.4646 93.1442 17.4646H92.2345Z" fill="black"/>
<path d="M47.5524 37.7207C47.3994 37.7207 47.2693 37.6671 47.1622 37.56C47.0551 37.4529 47.0015 37.3228 47.0015 37.1698V22.2272C47.0015 22.0588 47.0551 21.9211 47.1622 21.814C47.2693 21.7069 47.3994 21.6533 47.5524 21.6533H53.7039C54.8975 21.6533 55.9381 21.8446 56.8256 22.2272C57.7131 22.5944 58.4017 23.1606 58.8914 23.9257C59.3811 24.6755 59.6259 25.6166 59.6259 26.749C59.6259 27.8967 59.3811 28.8454 58.8914 29.5952C58.4017 30.3297 57.7131 30.8806 56.8256 31.2478C55.9381 31.6151 54.8975 31.7987 53.7039 31.7987H50.2839V37.1698C50.2839 37.3228 50.2303 37.4529 50.1232 37.56C50.0314 37.6671 49.9013 37.7207 49.733 37.7207H47.5524ZM50.238 29.2509H53.5892C54.4767 29.2509 55.1576 29.0443 55.632 28.6312C56.1064 28.2027 56.3436 27.5753 56.3436 26.749C56.3436 25.9839 56.1217 25.3718 55.6779 24.9127C55.2342 24.4383 54.5379 24.2012 53.5892 24.2012H50.238V29.2509ZM60.8236 37.7207C60.6706 37.7207 60.5405 37.6671 60.4334 37.56C60.3263 37.4529 60.2727 37.3228 60.2727 37.1698V21.9747C60.2727 21.8217 60.3263 21.6916 60.4334 21.5845C60.5405 21.4774 60.6706 21.4238 60.8236 21.4238H62.7287C62.8818 21.4238 63.0118 21.4774 63.1189 21.5845C63.2261 21.6916 63.2796 21.8217 63.2796 21.9747V37.1698C63.2796 37.3228 63.2261 37.4529 63.1189 37.56C63.0118 37.6671 62.8818 37.7207 62.7287 37.7207H60.8236ZM68.1836 37.9502C67.3879 37.9502 66.6687 37.7972 66.026 37.4912C65.3833 37.1698 64.8706 36.749 64.4881 36.2287C64.1208 35.6932 63.9372 35.0964 63.9372 34.4384C63.9372 33.3672 64.3657 32.5179 65.2226 31.8905C66.0948 31.2478 67.2425 30.8194 68.6656 30.6052L71.8102 30.1461V29.6641C71.8102 29.0214 71.6495 28.524 71.3282 28.1721C71.0068 27.8201 70.456 27.6442 69.6755 27.6442C69.1247 27.6442 68.6732 27.7589 68.3213 27.9885C67.9846 28.2027 67.7322 28.4934 67.5638 28.8607C67.4414 29.0596 67.2654 29.1591 67.0359 29.1591H65.2226C65.0543 29.1591 64.9242 29.1132 64.8324 29.0214C64.7559 28.9296 64.7176 28.8071 64.7176 28.6541C64.7329 28.4093 64.8324 28.1109 65.016 27.7589C65.1996 27.407 65.4904 27.0703 65.8882 26.749C66.2861 26.4123 66.7987 26.1292 67.4261 25.8997C68.0535 25.6702 68.811 25.5554 69.6985 25.5554C70.6625 25.5554 71.4736 25.6778 72.1316 25.9227C72.8049 26.1522 73.3404 26.4659 73.7383 26.8638C74.1362 27.2616 74.4269 27.7283 74.6105 28.2639C74.7941 28.7995 74.886 29.3657 74.886 29.9625V37.1698C74.886 37.3228 74.8324 37.4529 74.7253 37.56C74.6182 37.6671 74.4881 37.7207 74.3351 37.7207H72.4759C72.3075 37.7207 72.1698 37.6671 72.0627 37.56C71.9709 37.4529 71.925 37.3228 71.925 37.1698V36.2746C71.726 36.5654 71.4583 36.8408 71.1216 37.101C70.785 37.3458 70.3718 37.5524 69.8821 37.7207C69.4078 37.8737 68.8416 37.9502 68.1836 37.9502ZM68.964 35.7697C69.4996 35.7697 69.9816 35.6549 70.4101 35.4254C70.8538 35.1958 71.1981 34.8439 71.443 34.3695C71.7031 33.8798 71.8332 33.2677 71.8332 32.5332V32.0512L69.5378 32.4185C68.635 32.5562 67.9617 32.7781 67.5179 33.0841C67.0742 33.3902 66.8523 33.7651 66.8523 34.2088C66.8523 34.5455 66.9517 34.8362 67.1507 35.0811C67.3649 35.3106 67.6327 35.4866 67.954 35.609C68.2754 35.7161 68.612 35.7697 68.964 35.7697ZM78.0677 42.0818C77.9453 42.0818 77.8382 42.0359 77.7463 41.9441C77.6545 41.8523 77.6086 41.7452 77.6086 41.6228C77.6086 41.5616 77.6086 41.5004 77.6086 41.4392C77.6239 41.3932 77.6545 41.332 77.7004 41.2555L79.4908 37.0091L75.0838 26.6113C75.0225 26.4582 74.9919 26.3511 74.9919 26.2899C75.0072 26.1522 75.0608 26.0374 75.1526 25.9456C75.2444 25.8385 75.3592 25.7849 75.4969 25.7849H77.3561C77.5398 25.7849 77.6775 25.8308 77.7693 25.9227C77.8611 26.0145 77.93 26.1139 77.9759 26.2211L81.0287 33.7268L84.1733 26.2211C84.2192 26.0986 84.2881 25.9992 84.3799 25.9227C84.4717 25.8308 84.6094 25.7849 84.793 25.7849H86.6293C86.7517 25.7849 86.8588 25.8308 86.9507 25.9227C87.0578 26.0145 87.1113 26.1216 87.1113 26.244C87.1113 26.3358 87.0807 26.4582 87.0195 26.6113L80.5237 41.6457C80.4625 41.7682 80.386 41.8676 80.2942 41.9441C80.2024 42.0359 80.0646 42.0818 79.881 42.0818H78.0677ZM96.37 37.9502C94.9469 37.9502 93.7533 37.7437 92.7892 37.3305C91.8405 36.902 91.1136 36.3512 90.6087 35.6779C90.119 34.9893 89.8589 34.27 89.8283 33.5202C89.8283 33.3825 89.8742 33.2677 89.966 33.1759C90.0578 33.0841 90.1726 33.0382 90.3103 33.0382H92.3531C92.5521 33.0382 92.6974 33.0841 92.7892 33.1759C92.8964 33.2524 92.9882 33.3519 93.0647 33.4743C93.1565 33.7651 93.3325 34.0558 93.5926 34.3466C93.8527 34.622 94.2047 34.8515 94.6485 35.0352C95.1075 35.2188 95.6814 35.3106 96.37 35.3106C97.4717 35.3106 98.2904 35.127 98.826 34.7597C99.3769 34.3925 99.6523 33.8951 99.6523 33.2677C99.6523 32.824 99.5069 32.472 99.2162 32.2119C98.9254 31.9364 98.474 31.6916 97.8619 31.4774C97.2652 31.2478 96.4694 31.0107 95.4748 30.7658C94.3271 30.4904 93.3631 30.1614 92.5827 29.7788C91.8175 29.381 91.2361 28.8836 90.8382 28.2869C90.4556 27.6901 90.2644 26.9326 90.2644 26.0145C90.2644 25.1269 90.5016 24.3389 90.9759 23.6503C91.4656 22.9617 92.1542 22.4184 93.0417 22.0206C93.9446 21.6227 95.0157 21.4238 96.2552 21.4238C97.2499 21.4238 98.1297 21.5615 98.8948 21.837C99.66 22.0971 100.295 22.4491 100.8 22.8928C101.305 23.3213 101.688 23.788 101.948 24.293C102.223 24.7826 102.368 25.2647 102.384 25.739C102.384 25.8615 102.338 25.9762 102.246 26.0833C102.17 26.1751 102.055 26.2211 101.902 26.2211H99.7671C99.6447 26.2211 99.5222 26.1905 99.3998 26.1292C99.2774 26.068 99.1779 25.9533 99.1014 25.7849C99.0096 25.3106 98.7112 24.9051 98.2062 24.5684C97.7013 24.2318 97.0509 24.0634 96.2552 24.0634C95.4289 24.0634 94.7632 24.2165 94.2583 24.5225C93.7533 24.8286 93.5008 25.3029 93.5008 25.9456C93.5008 26.3741 93.6232 26.7337 93.8681 27.0244C94.1282 27.2999 94.5337 27.5447 95.0846 27.7589C95.6508 27.9732 96.3929 28.2027 97.3111 28.4475C98.6118 28.7383 99.6753 29.0749 100.502 29.4575C101.328 29.84 101.932 30.3297 102.315 30.9265C102.697 31.508 102.889 32.2501 102.889 33.153C102.889 34.1629 102.613 35.0275 102.062 35.7467C101.527 36.4506 100.769 36.9938 99.79 37.3764C98.8107 37.759 97.6707 37.9502 96.37 37.9502ZM109.031 37.7207C108.113 37.7207 107.34 37.56 106.713 37.2387C106.085 36.9173 105.619 36.443 105.313 35.8156C105.007 35.1729 104.854 34.3772 104.854 33.4284V28.218H103.04C102.887 28.218 102.757 28.1644 102.65 28.0573C102.543 27.9502 102.489 27.8201 102.489 27.6671V26.3358C102.489 26.1828 102.543 26.0527 102.65 25.9456C102.757 25.8385 102.887 25.7849 103.04 25.7849H104.854V21.9747C104.854 21.8217 104.899 21.6916 104.991 21.5845C105.098 21.4774 105.236 21.4238 105.404 21.4238H107.264C107.417 21.4238 107.547 21.4774 107.654 21.5845C107.761 21.6916 107.815 21.8217 107.815 21.9747V25.7849H110.684C110.837 25.7849 110.967 25.8385 111.074 25.9456C111.181 26.0527 111.235 26.1828 111.235 26.3358V27.6671C111.235 27.8201 111.181 27.9502 111.074 28.0573C110.967 28.1644 110.837 28.218 110.684 28.218H107.815V33.1989C107.815 33.8263 107.922 34.316 108.136 34.6679C108.365 35.0199 108.756 35.1958 109.307 35.1958H110.89C111.043 35.1958 111.173 35.2494 111.281 35.3565C111.388 35.4636 111.441 35.5937 111.441 35.7467V37.1698C111.441 37.3228 111.388 37.4529 111.281 37.56C111.173 37.6671 111.043 37.7207 110.89 37.7207H109.031ZM117.15 37.9502C115.926 37.9502 114.893 37.736 114.051 37.3075C113.225 36.8791 112.59 36.2746 112.146 35.4942C111.718 34.7138 111.473 33.8033 111.412 32.7628C111.396 32.4873 111.389 32.1507 111.389 31.7528C111.389 31.355 111.396 31.0183 111.412 30.7429C111.473 29.687 111.725 28.7765 112.169 28.0114C112.628 27.231 113.271 26.6266 114.097 26.1981C114.939 25.7696 115.956 25.5554 117.15 25.5554C118.344 25.5554 119.353 25.7696 120.18 26.1981C121.021 26.6266 121.664 27.231 122.108 28.0114C122.567 28.7765 122.827 29.687 122.888 30.7429C122.904 31.0183 122.911 31.355 122.911 31.7528C122.911 32.1507 122.904 32.4873 122.888 32.7628C122.827 33.8033 122.575 34.7138 122.131 35.4942C121.702 36.2746 121.067 36.8791 120.226 37.3075C119.399 37.736 118.374 37.9502 117.15 37.9502ZM117.15 35.6779C117.961 35.6779 118.588 35.4254 119.032 34.9204C119.476 34.4001 119.721 33.6427 119.767 32.648C119.782 32.4185 119.79 32.1201 119.79 31.7528C119.79 31.3856 119.782 31.0872 119.767 30.8576C119.721 29.8783 119.476 29.1285 119.032 28.6082C118.588 28.0879 117.961 27.8278 117.15 27.8278C116.339 27.8278 115.712 28.0879 115.268 28.6082C114.824 29.1285 114.579 29.8783 114.533 30.8576C114.518 31.0872 114.51 31.3856 114.51 31.7528C114.51 32.1201 114.518 32.4185 114.533 32.648C114.579 33.6427 114.824 34.4001 115.268 34.9204C115.712 35.4254 116.339 35.6779 117.15 35.6779ZM124.399 37.7207C124.246 37.7207 124.115 37.6671 124.008 37.56C123.901 37.4529 123.848 37.3228 123.848 37.1698V26.3588C123.848 26.1905 123.901 26.0527 124.008 25.9456C124.115 25.8385 124.246 25.7849 124.399 25.7849H126.258C126.411 25.7849 126.541 25.8385 126.648 25.9456C126.77 26.0527 126.832 26.1905 126.832 26.3588V27.2999C127.184 26.8102 127.635 26.4353 128.186 26.1752C128.752 25.915 129.402 25.7849 130.137 25.7849H131.078C131.246 25.7849 131.376 25.8385 131.468 25.9456C131.575 26.0527 131.629 26.1828 131.629 26.3358V27.9885C131.629 28.1415 131.575 28.2716 131.468 28.3787C131.376 28.4858 131.246 28.5393 131.078 28.5393H129.288C128.553 28.5393 127.979 28.7459 127.566 29.1591C127.168 29.5723 126.969 30.1384 126.969 30.8576V37.1698C126.969 37.3228 126.916 37.4529 126.809 37.56C126.702 37.6671 126.564 37.7207 126.396 37.7207H124.399ZM136.797 37.9502C135.098 37.9502 133.752 37.4606 132.757 36.4812C131.763 35.5019 131.227 34.1094 131.15 32.3037C131.135 32.1507 131.127 31.9594 131.127 31.7299C131.127 31.485 131.135 31.2938 131.15 31.156C131.212 30.0084 131.472 29.0137 131.931 28.1721C132.405 27.3305 133.056 26.6878 133.882 26.244C134.708 25.7849 135.68 25.5554 136.797 25.5554C138.036 25.5554 139.077 25.8155 139.919 26.3358C140.76 26.8408 141.395 27.5524 141.824 28.4705C142.252 29.3733 142.466 30.4215 142.466 31.6151V32.0971C142.466 32.2501 142.413 32.3802 142.306 32.4873C142.199 32.5944 142.061 32.648 141.893 32.648H134.272C134.272 32.648 134.272 32.671 134.272 32.7169C134.272 32.7628 134.272 32.801 134.272 32.8316C134.287 33.3672 134.387 33.8645 134.57 34.3236C134.769 34.7674 135.053 35.127 135.42 35.4024C135.802 35.6779 136.254 35.8156 136.774 35.8156C137.202 35.8156 137.562 35.7544 137.853 35.6319C138.144 35.4942 138.381 35.3412 138.564 35.1729C138.748 35.0046 138.878 34.8668 138.955 34.7597C139.092 34.5761 139.199 34.469 139.276 34.4384C139.368 34.3925 139.498 34.3695 139.666 34.3695H141.64C141.793 34.3695 141.916 34.4154 142.007 34.5072C142.115 34.599 142.16 34.7138 142.145 34.8515C142.13 35.0964 142 35.3948 141.755 35.7467C141.525 36.0987 141.189 36.443 140.745 36.7796C140.301 37.1163 139.743 37.3994 139.069 37.6289C138.411 37.8431 137.654 37.9502 136.797 37.9502ZM134.272 30.7199H139.345V30.6511C139.345 30.0543 139.245 29.534 139.046 29.0902C138.847 28.6465 138.557 28.2945 138.174 28.0344C137.792 27.7742 137.333 27.6442 136.797 27.6442C136.261 27.6442 135.802 27.7742 135.42 28.0344C135.037 28.2945 134.746 28.6465 134.548 29.0902C134.364 29.534 134.272 30.0543 134.272 30.6511V30.7199Z" fill="black"/>
</svg>
