<svg width="36" height="29" viewBox="0 0 36 29" fill="none" xmlns="http://www.w3.org/2000/svg">
<path d="M11.5106 28.7188C24.7149 28.7188 31.9392 17.7765 31.9392 8.29031C31.9392 7.98269 31.9323 7.66824 31.9187 7.36062C33.324 6.34431 34.5368 5.08546 35.5 3.64324C34.1912 4.22555 32.8016 4.60586 31.3786 4.77117C32.8769 3.87308 33.9987 2.46224 34.5361 0.800168C33.1266 1.63549 31.5852 2.22473 29.9779 2.54265C28.895 1.39195 27.4631 0.630053 25.9037 0.374749C24.3443 0.119446 22.7442 0.384957 21.3509 1.13023C19.9575 1.87551 18.8485 3.05904 18.1952 4.49784C17.5419 5.93664 17.3808 7.55057 17.7368 9.09011C14.8828 8.94689 12.0907 8.2055 9.54164 6.91399C6.99254 5.62248 4.7433 3.80969 2.93975 1.59314C2.02308 3.17357 1.74258 5.04374 2.15525 6.82356C2.56792 8.60338 3.6428 10.1593 5.16143 11.1751C4.02133 11.1389 2.90621 10.8319 1.9082 10.2796V10.3684C1.90718 12.027 2.48056 13.6347 3.53087 14.9183C4.58118 16.2019 6.0436 17.0822 7.66953 17.4094C6.61341 17.6984 5.50497 17.7405 4.42998 17.5325C4.88879 18.9589 5.78146 20.2064 6.98342 21.101C8.18537 21.9956 9.63664 22.4926 11.1347 22.5227C8.59145 24.5205 5.44984 25.604 2.21582 25.5989C1.64229 25.598 1.06933 25.5629 0.5 25.4936C3.78542 27.6014 7.60723 28.7209 11.5106 28.7188Z" fill="white"/>
</svg>
