<svg width="36" height="25" viewBox="0 0 36 25" fill="none" xmlns="http://www.w3.org/2000/svg">
<path d="M35.1514 5.5C35.1514 5.5 34.8096 3.08691 33.7568 2.02734C32.4238 0.632813 30.9336 0.625976 30.25 0.543945C25.3555 0.188476 18.0068 0.188477 18.0068 0.188477H17.9932C17.9932 0.188477 10.6445 0.188476 5.75 0.543945C5.06641 0.625976 3.57617 0.632813 2.24316 2.02734C1.19043 3.08691 0.855469 5.5 0.855469 5.5C0.855469 5.5 0.5 8.33692 0.5 11.167V13.8193C0.5 16.6494 0.848633 19.4863 0.848633 19.4863C0.848633 19.4863 1.19043 21.8994 2.23633 22.959C3.56934 24.3535 5.31934 24.3057 6.09863 24.4561C8.90137 24.7227 18 24.8047 18 24.8047C18 24.8047 25.3555 24.791 30.25 24.4424C30.9336 24.3604 32.4238 24.3535 33.7568 22.959C34.8096 21.8994 35.1514 19.4863 35.1514 19.4863C35.1514 19.4863 35.5 16.6563 35.5 13.8193V11.167C35.5 8.33692 35.1514 5.5 35.1514 5.5ZM14.3838 17.0391V7.20215L23.8379 12.1377L14.3838 17.0391Z" fill="white"/>
</svg>
